<svg width="35" height="35" viewBox="0 0 35 35" fill="none" xmlns="http://www.w3.org/2000/svg">
<circle cx="17.5" cy="17.5" r="17.5" fill="#39B048"/>
<path d="M11.4688 15.5C13.4017 15.5 14.9688 13.933 14.9688 12C14.9688 10.067 13.4017 8.5 11.4688 8.5C9.53575 8.5 7.96875 10.067 7.96875 12C7.96875 13.933 9.53575 15.5 11.4688 15.5Z" stroke="white" stroke-width="1.5" stroke-miterlimit="10"/>
<path d="M24.9688 8.5H19.9688C19.4165 8.5 18.9688 8.94772 18.9688 9.5V14.5C18.9688 15.0523 19.4165 15.5 19.9688 15.5H24.9688C25.521 15.5 25.9688 15.0523 25.9688 14.5V9.5C25.9688 8.94772 25.521 8.5 24.9688 8.5Z" stroke="white" stroke-width="1.5" stroke-miterlimit="10"/>
<path d="M15.2306 22.2919L12.1759 19.2372C11.7853 18.8467 11.1522 18.8467 10.7616 19.2372L7.70698 22.2919C7.31646 22.6824 7.31646 23.3155 7.70698 23.7061L10.7617 26.7608C11.1523 27.1513 11.7854 27.1513 12.1759 26.7608L15.2306 23.7062C15.6211 23.3156 15.6211 22.6825 15.2306 22.2919Z" stroke="white" stroke-width="1.5" stroke-miterlimit="10"/>
<path d="M22.9187 19.59L23.4187 20.08C23.54 20.1969 23.7003 20.2645 23.8687 20.27H24.5586C24.7283 20.27 24.8912 20.3374 25.0112 20.4575C25.1313 20.5775 25.1987 20.7402 25.1987 20.91V21.6C25.1959 21.7711 25.2605 21.9363 25.3787 22.06L25.8687 22.55C25.9877 22.6715 26.0544 22.8348 26.0544 23.0049C26.0544 23.1751 25.9877 23.3385 25.8687 23.46L25.3787 23.95C25.3204 24.0094 25.2745 24.0798 25.2437 24.157C25.2128 24.2343 25.1975 24.3168 25.1987 24.4V25.09C25.1988 25.2607 25.1315 25.4245 25.0117 25.5461C24.892 25.6677 24.7292 25.7374 24.5586 25.7401H23.8687C23.7014 25.7418 23.541 25.8059 23.4187 25.92L22.9187 26.41C22.86 26.4698 22.7899 26.5174 22.7126 26.5499C22.6354 26.5823 22.5526 26.5991 22.4688 26.5991C22.3849 26.5991 22.3019 26.5823 22.2246 26.5499C22.1473 26.5174 22.0772 26.4698 22.0186 26.41L21.5186 25.92C21.3963 25.8059 21.2358 25.7418 21.0686 25.7401H20.3787C20.208 25.7374 20.0453 25.6677 19.9255 25.5461C19.8058 25.4245 19.7387 25.2607 19.7388 25.09V24.4C19.74 24.3168 19.7245 24.2343 19.6936 24.157C19.6627 24.0798 19.6168 24.0094 19.5586 23.95L19.0686 23.46C18.9495 23.3385 18.8828 23.1751 18.8828 23.0049C18.8828 22.8348 18.9495 22.6715 19.0686 22.55L19.5586 22.06C19.6768 21.9363 19.7416 21.7711 19.7388 21.6V20.91C19.7388 20.7402 19.806 20.5775 19.926 20.4575C20.046 20.3374 20.2089 20.27 20.3787 20.27H21.0686C21.237 20.2645 21.3973 20.1969 21.5186 20.08L22.0186 19.59C22.0772 19.5302 22.1473 19.4826 22.2246 19.4501C22.3019 19.4177 22.3849 19.4009 22.4688 19.4009C22.5526 19.4009 22.6354 19.4177 22.7126 19.4501C22.7899 19.4826 22.86 19.5302 22.9187 19.59V19.59Z" stroke="white" stroke-width="1.5" stroke-miterlimit="10"/>
</svg>
