<svg width="18" height="15" viewBox="0 0 18 15" fill="none" xmlns="http://www.w3.org/2000/svg">
<path fill-rule="evenodd" clip-rule="evenodd" d="M13.1162 0C14.2337 0 15.3087 0.441667 16.0995 1.23417C16.8912 2.025 17.3337 3.09167 17.3337 4.20833V10.7917C17.3337 13.1167 15.442 15 13.1162 15H4.88367C2.55784 15 0.667007 13.1167 0.667007 10.7917V4.20833C0.667007 1.88333 2.54951 0 4.88367 0H13.1162ZM14.442 5.45L14.5087 5.38333C14.7078 5.14167 14.7078 4.79167 14.4995 4.55C14.3837 4.42583 14.2245 4.35 14.0587 4.33333C13.8837 4.32417 13.717 4.38333 13.5912 4.5L9.83367 7.5C9.35034 7.90083 8.65784 7.90083 8.16701 7.5L4.41701 4.5C4.15784 4.30833 3.79951 4.33333 3.58367 4.55833C3.35867 4.78333 3.33367 5.14167 3.52451 5.39167L3.63367 5.5L7.42534 8.45833C7.89201 8.825 8.45784 9.025 9.05034 9.025C9.64117 9.025 10.217 8.825 10.6828 8.45833L14.442 5.45Z" fill="#1D7151"/>
</svg>
