<svg width="85" height="85" viewBox="0 0 85 85" fill="none" xmlns="http://www.w3.org/2000/svg">
<g clip-path="url(#clip0_1280_17728)">
<path d="M1.0119 76.7767C1.57076 76.7767 2.02381 76.3237 2.02381 75.7648C2.02381 75.206 1.57076 74.7529 1.0119 74.7529C0.453045 74.7529 0 75.206 0 75.7648C0 76.3237 0.453045 76.7767 1.0119 76.7767Z" fill="#1E1E1E"/>
<path d="M5.56541 74.7528H4.04755C3.77918 74.7528 3.52179 74.8594 3.33202 75.0492C3.14226 75.239 3.03564 75.4964 3.03564 75.7647C3.03564 76.0331 3.14226 76.2905 3.33202 76.4803C3.52179 76.67 3.77918 76.7766 4.04755 76.7766H5.56541C5.83378 76.7766 6.09116 76.67 6.28093 76.4803C6.4707 76.2905 6.57731 76.0331 6.57731 75.7647C6.57731 75.4964 6.4707 75.239 6.28093 75.0492C6.09116 74.8594 5.83378 74.7528 5.56541 74.7528ZM80.9523 74.7528H79.4345C79.1661 74.7528 78.9087 74.8594 78.7189 75.0492C78.5292 75.239 78.4226 75.4964 78.4226 75.7647C78.4226 76.0331 78.5292 76.2905 78.7189 76.4803C78.9087 76.67 79.1661 76.7766 79.4345 76.7766H80.9523C81.2207 76.7766 81.4781 76.67 81.6678 76.4803C81.8576 76.2905 81.9642 76.0331 81.9642 75.7647C81.9642 75.4964 81.8576 75.239 81.6678 75.0492C81.4781 74.8594 81.2207 74.7528 80.9523 74.7528Z" fill="#1E1E1E"/>
<path d="M83.988 76.7767C84.5468 76.7767 84.9999 76.3237 84.9999 75.7648C84.9999 75.206 84.5468 74.7529 83.988 74.7529C83.4291 74.7529 82.9761 75.206 82.9761 75.7648C82.9761 76.3237 83.4291 76.7767 83.988 76.7767Z" fill="#1E1E1E"/>
<path d="M59.7802 78.8005H55.5768C55.3225 78.8209 55.0851 78.9363 54.912 79.1238C54.7389 79.3113 54.6428 79.5572 54.6428 79.8124C54.6428 80.0676 54.7389 80.3134 54.912 80.5009C55.0851 80.6885 55.3225 80.8039 55.5768 80.8243H59.7802C60.0346 80.8039 60.2719 80.6885 60.445 80.5009C60.6181 80.3134 60.7142 80.0676 60.7142 79.8124C60.7142 79.5572 60.6181 79.3113 60.445 79.1238C60.2719 78.9363 60.0346 78.8209 59.7802 78.8005ZM29.423 78.8005H25.2197C24.9653 78.8209 24.728 78.9363 24.5549 79.1238C24.3818 79.3113 24.2856 79.5572 24.2856 79.8124C24.2856 80.0676 24.3818 80.3134 24.5549 80.5009C24.728 80.6885 24.9653 80.8039 25.2197 80.8243H29.423C29.6774 80.8039 29.9148 80.6885 30.0879 80.5009C30.261 80.3134 30.3571 80.0676 30.3571 79.8124C30.3571 79.5572 30.261 79.3113 30.0879 79.1238C29.9148 78.9363 29.6774 78.8209 29.423 78.8005ZM52.619 78.8005H32.3809C32.1125 78.8005 31.8551 78.9071 31.6654 79.0969C31.4756 79.2866 31.369 79.544 31.369 79.8124C31.369 80.0808 31.4756 80.3381 31.6654 80.5279C31.8551 80.7177 32.1125 80.8243 32.3809 80.8243H40.4458V81.8362H36.4285C36.1601 81.8362 35.9028 81.9428 35.713 82.1326C35.5232 82.3223 35.4166 82.5797 35.4166 82.8481C35.4166 83.1165 35.5232 83.3739 35.713 83.5636C35.9028 83.7534 36.1601 83.86 36.4285 83.86H49.0773C49.3457 83.86 49.6031 83.7534 49.7928 83.5636C49.9826 83.3739 50.0892 83.1165 50.0892 82.8481C50.0892 82.5797 49.9826 82.3223 49.7928 82.1326C49.6031 81.9428 49.3457 81.8362 49.0773 81.8362H44.5541V80.8243H52.619C52.8874 80.8243 53.1447 80.7177 53.3345 80.5279C53.5243 80.3381 53.6309 80.0808 53.6309 79.8124C53.6309 79.544 53.5243 79.2866 53.3345 79.0969C53.1447 78.9071 52.8874 78.8005 52.619 78.8005Z" fill="#00A851"/>
<path d="M30.1859 64.1227L27.5802 67.7728C27.424 67.9856 27.3346 68.24 27.3235 68.5037C27.3123 68.7674 27.3798 69.0284 27.5175 69.2536C27.6569 69.4813 27.8595 69.6635 28.1007 69.778C28.3419 69.8925 28.6112 69.9343 28.8757 69.8984L31.0127 69.683C31.0127 69.683 31.3877 71.5347 31.3889 71.5407C31.4323 71.8095 31.5535 72.0596 31.7376 72.2602C31.9216 72.4607 32.1604 72.6029 32.4244 72.6692C32.6885 72.7354 32.9661 72.7228 33.2231 72.6329C33.48 72.543 33.7049 72.3797 33.87 72.1633L37.6423 66.9457C37.0738 67.1944 36.4617 67.328 35.8412 67.339C35.5376 67.3387 35.235 67.3019 34.9402 67.2293L33.097 69.7788L32.8964 68.7892C32.8529 68.4473 32.6801 68.135 32.4135 67.9166C32.2663 67.7976 32.0966 67.7095 31.9146 67.6576C31.7325 67.6057 31.5419 67.5911 31.3541 67.6147L30.0882 67.7422L32.0934 64.9333C31.4072 64.8017 30.7569 64.5254 30.1859 64.1227ZM43.14 72.7073C43.47 72.7104 43.7899 72.594 44.0406 72.3796C44.2914 72.1651 44.456 71.8672 44.5042 71.5408L44.8804 69.683L47.0174 69.8984C47.2819 69.9341 47.5511 69.8921 47.7922 69.7777C48.0334 69.6632 48.2361 69.4811 48.3757 69.2536C48.5128 69.0301 48.5807 68.7709 48.5706 68.5089C48.5606 68.2468 48.4732 67.9936 48.3193 67.7812L45.7075 64.1226C45.1364 64.5254 44.486 64.8018 43.7997 64.9333L45.8049 67.7422L44.539 67.6147C44.3512 67.5907 44.1605 67.6052 43.9784 67.6571C43.7963 67.7089 43.6266 67.7972 43.4797 67.9166C43.213 68.135 43.0402 68.4472 42.9967 68.7891L42.7961 69.7783L40.948 67.2222C40.0437 67.4224 39.0991 67.3267 38.2533 66.9493C38.2533 66.9493 42.0251 72.1663 42.0283 72.1707C42.1551 72.3448 42.3229 72.4848 42.5169 72.5784C42.7108 72.672 42.9249 72.7163 43.14 72.7073Z" fill="#1E1E1E"/>
<path d="M38.5877 64.8824C39.1885 65.2585 39.9134 65.3822 40.6049 65.2267C41.2688 64.938 41.793 64.4005 42.0652 63.7296C42.1582 63.5358 42.2729 63.3531 42.4071 63.1851C42.6123 63.1061 42.8259 63.051 43.0437 63.0211C43.4042 63.0302 43.7616 62.9518 44.0851 62.7925C44.4086 62.6332 44.6886 62.3978 44.9012 62.1065C45.1137 61.8152 45.2525 61.4766 45.3054 61.1199C45.3584 60.7632 45.3241 60.399 45.2054 60.0585C45.1659 59.8393 45.1522 59.6163 45.1646 59.3939C45.2809 59.2191 45.4162 59.0577 45.5681 58.9127C45.8702 58.7038 46.1172 58.4246 46.2879 58.0992C46.4585 57.7738 46.5476 57.4119 46.5476 57.0445C46.5476 56.6771 46.4585 56.3152 46.2879 55.9898C46.1172 55.6644 45.8702 55.3853 45.5681 55.1764C45.4173 55.0321 45.2826 54.8721 45.1661 54.6991C45.1525 54.4756 45.1657 54.2514 45.2054 54.031C45.3241 53.6905 45.3584 53.3262 45.3053 52.9695C45.2523 52.6128 45.1136 52.2742 44.901 51.9829C44.6885 51.6915 44.4084 51.4561 44.0849 51.2968C43.7614 51.1374 43.404 51.0589 43.0435 51.068C42.8267 51.038 42.6141 50.9836 42.4096 50.9059C42.2742 50.7376 42.1586 50.5542 42.0652 50.3594C41.793 49.6885 41.2688 49.1511 40.6049 48.8623C39.9135 48.707 39.1887 48.8307 38.588 49.2067C38.3855 49.3163 38.1699 49.3998 37.9464 49.4553C37.723 49.3998 37.5075 49.3163 37.3051 49.2067C36.7042 48.831 35.9794 48.7072 35.2879 48.8623C34.624 49.1511 34.0998 49.6886 33.8276 50.3595C33.7346 50.5533 33.6199 50.736 33.4857 50.9039C33.2805 50.983 33.0669 51.038 32.8491 51.068C32.4886 51.0589 32.1313 51.1373 31.8077 51.2966C31.4842 51.4559 31.2042 51.6913 30.9916 51.9826C30.7791 52.2739 30.6404 52.6124 30.5874 52.9691C30.5344 53.3258 30.5687 53.6901 30.6874 54.0306C30.7269 54.2497 30.7406 54.4728 30.7282 54.6951C30.6119 54.87 30.4766 55.0314 30.3248 55.1764C30.0226 55.3853 29.7756 55.6645 29.605 55.9899C29.4343 56.3152 29.3452 56.6772 29.3452 57.0446C29.3452 57.412 29.4343 57.7739 29.605 58.0993C29.7756 58.4246 30.0226 58.7038 30.3248 58.9127C30.4755 59.0569 30.6102 59.217 30.7267 59.39C30.7403 59.6135 30.7272 59.8377 30.6874 60.058C30.5688 60.3986 30.5345 60.7629 30.5875 61.1196C30.6405 61.4763 30.7792 61.8149 30.9918 62.1062C31.2043 62.3975 31.4844 62.633 31.8079 62.7923C32.1314 62.9517 32.4888 63.0302 32.8493 63.0211C33.0661 63.0511 33.2787 63.1055 33.4833 63.1832C33.6186 63.3515 33.7342 63.5349 33.8276 63.7296C34.0998 64.4005 34.624 64.938 35.2879 65.2268C35.4679 65.2851 35.656 65.3147 35.8453 65.3142C36.3577 65.2799 36.8562 65.1324 37.3048 64.8824C37.5074 64.7728 37.7229 64.6893 37.9464 64.6338C38.1698 64.6893 38.3853 64.7728 38.5877 64.8824ZM36.4411 63.0517C36.2708 63.1377 36.0949 63.2123 35.9147 63.2751C35.7998 63.1117 35.6964 62.9405 35.6054 62.7627C35.391 62.293 35.0732 61.8778 34.6757 61.5482C34.2367 61.2692 33.7403 61.0929 33.2236 61.0324C33.0281 61.0006 32.835 60.9553 32.6458 60.897C32.649 60.7018 32.6655 60.507 32.6952 60.314C32.7967 59.8009 32.7818 59.2716 32.6517 58.765C32.4631 58.2905 32.1695 57.8648 31.793 57.5199C31.6447 57.3728 31.5087 57.2138 31.3863 57.0445C31.5087 56.8753 31.6447 56.7163 31.793 56.5692C32.1696 56.2242 32.4632 55.7983 32.6517 55.3236C32.7818 54.8172 32.7967 54.288 32.6952 53.7751C32.6655 53.582 32.649 53.387 32.6458 53.1916C32.8349 53.1337 33.0278 53.0886 33.2231 53.0567C33.74 52.9963 34.2365 52.82 34.6757 52.5409C35.073 52.2113 35.3908 51.7963 35.6054 51.3269C35.6963 51.1489 35.7997 50.9775 35.9147 50.814C36.0948 50.8768 36.2707 50.9513 36.4411 51.0369C36.9033 51.2956 37.4178 51.4467 37.9464 51.4791C38.4749 51.4466 38.9894 51.2957 39.4517 51.0374C39.622 50.9514 39.7979 50.8768 39.9781 50.814C40.093 50.9774 40.1964 51.1486 40.2874 51.3264C40.4746 51.8142 40.7992 52.2373 41.2219 52.5445C41.6447 52.8516 42.1474 53.0295 42.6692 53.0567C42.8647 53.0885 43.0578 53.1338 43.247 53.1921C43.2438 53.3874 43.2273 53.5821 43.1976 53.7751C43.0961 54.2882 43.111 54.8175 43.2411 55.3241C43.4298 55.7986 43.7233 56.2243 44.0999 56.5692C44.2481 56.7163 44.3841 56.8753 44.5065 57.0446C44.3841 57.2138 44.2481 57.3728 44.0999 57.5199C43.7232 57.8649 43.4296 58.2908 43.2411 58.7655C43.111 59.2719 43.0961 59.8011 43.1976 60.314C43.2273 60.5071 43.2438 60.7021 43.247 60.8975C43.0579 60.9554 42.865 61.0005 42.6697 61.0324C42.1479 61.0595 41.6451 61.2374 41.2223 61.5444C40.7995 61.8514 40.4748 62.2744 40.2874 62.7622C40.1965 62.9402 40.0931 63.1116 39.9781 63.2751C39.798 63.2123 39.6221 63.1378 39.4517 63.0522C38.9895 62.7935 38.475 62.6424 37.9464 62.61C37.4179 62.6425 36.9034 62.7934 36.4411 63.0517Z" fill="#00A851"/>
<path d="M41.4881 57.0445C41.4881 56.3441 41.2804 55.6593 40.8912 55.0769C40.5021 54.4945 39.9489 54.0405 39.3018 53.7725C38.6546 53.5044 37.9425 53.4343 37.2555 53.5709C36.5685 53.7076 35.9374 54.0449 35.4421 54.5402C34.9468 55.0355 34.6095 55.6666 34.4728 56.3536C34.3362 57.0406 34.4063 57.7527 34.6744 58.3999C34.9424 59.047 35.3964 59.6002 35.9788 59.9893C36.5612 60.3785 37.246 60.5862 37.9465 60.5862C38.8854 60.5851 39.7856 60.2116 40.4496 59.5477C41.1135 58.8837 41.487 57.9835 41.4881 57.0445ZM36.4286 57.0445C36.4286 56.7443 36.5176 56.4509 36.6844 56.2013C36.8512 55.9516 37.0882 55.7571 37.3656 55.6422C37.6429 55.5273 37.9481 55.4973 38.2426 55.5558C38.537 55.6144 38.8075 55.759 39.0197 55.9712C39.232 56.1835 39.3766 56.454 39.4351 56.7484C39.4937 57.0429 39.4637 57.348 39.3488 57.6254C39.2339 57.9027 39.0393 58.1398 38.7897 58.3066C38.5401 58.4734 38.2467 58.5624 37.9465 58.5624C37.544 58.562 37.1582 58.4019 36.8737 58.1173C36.5891 57.8328 36.429 57.447 36.4286 57.0445Z" fill="#1E1E1E"/>
<path d="M49.5836 31.7469H26.3098C26.0414 31.7469 25.784 31.8536 25.5942 32.0433C25.4045 32.2331 25.2979 32.4905 25.2979 32.7589C25.2979 33.0272 25.4045 33.2846 25.5942 33.4744C25.784 33.6641 26.0414 33.7708 26.3098 33.7708H49.5836C49.8519 33.7708 50.1093 33.6641 50.2991 33.4744C50.4889 33.2846 50.5955 33.0272 50.5955 32.7589C50.5955 32.4905 50.4889 32.2331 50.2991 32.0433C50.1093 31.8536 49.8519 31.7469 49.5836 31.7469Z" fill="#00A851"/>
<path d="M49.5836 35.7946H26.3098C26.0414 35.7946 25.784 35.9012 25.5942 36.0909C25.4045 36.2807 25.2979 36.5381 25.2979 36.8065C25.2979 37.0748 25.4045 37.3322 25.5942 37.522C25.784 37.7118 26.0414 37.8184 26.3098 37.8184H49.5836C49.8519 37.8184 50.1093 37.7118 50.2991 37.522C50.4889 37.3322 50.5955 37.0748 50.5955 36.8065C50.5955 36.5381 50.4889 36.2807 50.2991 36.0909C50.1093 35.9012 49.8519 35.7946 49.5836 35.7946Z" fill="#1E1E1E"/>
<path d="M49.5836 39.8422H26.3098C26.0414 39.8422 25.784 39.9488 25.5942 40.1385C25.4045 40.3283 25.2979 40.5857 25.2979 40.8541C25.2979 41.1224 25.4045 41.3798 25.5942 41.5696C25.784 41.7594 26.0414 41.866 26.3098 41.866H49.5836C49.8519 41.866 50.1093 41.7594 50.2991 41.5696C50.4889 41.3798 50.5955 41.1224 50.5955 40.8541C50.5955 40.5857 50.4889 40.3283 50.2991 40.1385C50.1093 39.9488 49.8519 39.8422 49.5836 39.8422Z" fill="#00A851"/>
<path d="M50.5955 44.9017C50.5955 44.6333 50.4888 44.376 50.2991 44.1862C50.1093 43.9964 49.8519 43.8898 49.5836 43.8898H26.3098C26.0414 43.8898 25.784 43.9964 25.5942 44.1862C25.4045 44.3759 25.2979 44.6333 25.2979 44.9017C25.2979 45.1701 25.4045 45.4275 25.5942 45.6172C25.784 45.807 26.0414 45.9136 26.3098 45.9136H49.5836C49.8519 45.9136 50.1093 45.807 50.2991 45.6172C50.4888 45.4274 50.5955 45.1701 50.5955 44.9017Z" fill="#1E1E1E"/>
<path d="M76.2577 74.7528H67.2425C67.6058 74.1313 67.7974 73.4243 67.7975 72.7044V67.3275L65.7737 70.7021V72.7044C65.7763 73.2441 65.5648 73.7628 65.1855 74.1468C64.8063 74.5308 64.2902 74.7487 63.7505 74.7528H21.2493C20.7096 74.7487 20.1935 74.5308 19.8142 74.1468C19.435 73.7628 19.2235 73.2441 19.2261 72.7044V29.2172H30.3756C31.4631 29.1962 32.4979 28.7449 33.2531 27.9621C34.0084 27.1794 34.4225 26.1291 34.4046 25.0416V14.0386H63.7499C64.2897 14.0425 64.8059 14.2604 65.1853 14.6444C65.5647 15.0284 65.7763 15.5473 65.7737 16.0871V62.1041H63.2439V51.985C63.2439 51.7167 63.1373 51.4593 62.9476 51.2695C62.7578 51.0797 62.5004 50.9731 62.232 50.9731C61.9636 50.9731 61.7063 51.0797 61.5165 51.2695C61.3267 51.4593 61.2201 51.7167 61.2201 51.985V62.1041H58.6904V32.7588C58.6904 32.4905 58.5837 32.2331 58.394 32.0433C58.2042 31.8535 57.9468 31.7469 57.6785 31.7469C57.4101 31.7469 57.1527 31.8535 56.9629 32.0433C56.7732 32.2331 56.6665 32.4905 56.6665 32.7588V62.8324C56.6667 63.1989 56.7662 63.5585 56.9546 63.8729L61.3641 71.2256C61.454 71.3755 61.5812 71.4996 61.7333 71.5857C61.8854 71.6719 62.0572 71.7172 62.232 71.7172C62.4068 71.7172 62.5787 71.6719 62.7307 71.5857C62.8828 71.4996 63.01 71.3755 63.0999 71.2256L67.5097 63.8724C67.698 63.5582 67.7974 63.1987 67.7975 62.8324V16.0871C67.7996 15.0107 67.3746 13.9774 66.6158 13.214C65.8569 12.4505 64.8263 12.0193 63.7499 12.0148H33.4861C33.1882 12.0046 32.8981 12.1109 32.6773 12.3112L17.4987 27.4898C17.3098 27.6846 17.2035 27.9448 17.2023 28.2161V72.7044C17.2024 73.4243 17.394 74.1313 17.7573 74.7528H8.74208C8.59812 74.734 8.45181 74.7461 8.31291 74.7884C8.17401 74.8306 8.04573 74.902 7.93662 74.9978C7.82752 75.0936 7.7401 75.2115 7.68022 75.3438C7.62033 75.476 7.58936 75.6195 7.58936 75.7647C7.58936 75.9099 7.62033 76.0534 7.68022 76.1857C7.7401 76.3179 7.82752 76.4359 7.93662 76.5316C8.04573 76.6274 8.17401 76.6988 8.31291 76.7411C8.45181 76.7833 8.59812 76.7954 8.74208 76.7766H76.2577C76.4016 76.7954 76.548 76.7833 76.6869 76.7411C76.8258 76.6988 76.954 76.6274 77.0631 76.5316C77.1723 76.4359 77.2597 76.3179 77.3195 76.1857C77.3794 76.0534 77.4104 75.9099 77.4104 75.7647C77.4104 75.6195 77.3794 75.476 77.3195 75.3438C77.2597 75.2115 77.1723 75.0936 77.0631 74.9978C76.954 74.902 76.8258 74.8306 76.6869 74.7884C76.548 74.7461 76.4016 74.734 76.2577 74.7528ZM62.232 68.7378L59.4673 64.1279H64.9967L62.232 68.7378ZM32.3808 15.4695V25.0416C32.3989 25.5925 32.1981 26.1281 31.8223 26.5314C31.4465 26.9346 30.9264 27.1726 30.3756 27.1934H20.6572L32.3808 15.4695ZM71.8451 18.7867C72.1453 18.7867 72.4388 18.6977 72.6884 18.5309C72.938 18.3641 73.1326 18.127 73.2474 17.8497C73.3623 17.5723 73.3924 17.2671 73.3338 16.9727C73.2752 16.6783 73.1307 16.4078 72.9184 16.1955C72.7061 15.9833 72.4357 15.8387 72.1412 15.7801C71.8468 15.7216 71.5416 15.7516 71.2643 15.8665C70.9869 15.9814 70.7498 16.1759 70.5831 16.4256C70.4163 16.6752 70.3273 16.9686 70.3273 17.2688C70.3277 17.6713 70.4878 18.0571 70.7723 18.3416C71.0569 18.6262 71.4427 18.7862 71.8451 18.7867ZM71.8451 16.5099C71.9952 16.5099 72.142 16.5544 72.2668 16.6378C72.3916 16.7212 72.4888 16.8397 72.5463 16.9784C72.6037 17.1171 72.6188 17.2697 72.5895 17.4169C72.5602 17.5641 72.4879 17.6993 72.3818 17.8055C72.2756 17.9116 72.1404 17.9839 71.9932 18.0132C71.846 18.0425 71.6934 18.0274 71.5547 17.97C71.416 17.9126 71.2975 17.8153 71.2141 17.6905C71.1307 17.5657 71.0862 17.4189 71.0862 17.2688C71.0864 17.0676 71.1664 16.8747 71.3087 16.7324C71.451 16.5901 71.6439 16.5101 71.8451 16.5099ZM82.2953 27.1934C82.0952 27.1934 81.8996 27.2527 81.7332 27.3639C81.5667 27.4751 81.437 27.6331 81.3605 27.818C81.2839 28.0029 81.2638 28.2064 81.3029 28.4027C81.3419 28.599 81.4383 28.7793 81.5798 28.9208C81.7213 29.0623 81.9016 29.1587 82.0979 29.1977C82.2942 29.2368 82.4977 29.2167 82.6826 29.1401C82.8675 29.0636 83.0255 28.9339 83.1367 28.7674C83.2479 28.601 83.3072 28.4054 83.3072 28.2053C83.3069 27.937 83.2002 27.6798 83.0105 27.4901C82.8208 27.3004 82.5636 27.1937 82.2953 27.1934ZM82.2953 28.7112C82.1953 28.7112 82.0975 28.6815 82.0143 28.6259C81.931 28.5704 81.8662 28.4913 81.8279 28.3989C81.7896 28.3064 81.7796 28.2047 81.7991 28.1066C81.8186 28.0084 81.8668 27.9183 81.9376 27.8475C82.0083 27.7767 82.0985 27.7286 82.1966 27.709C82.2948 27.6895 82.3965 27.6995 82.489 27.7378C82.5814 27.7761 82.6604 27.841 82.716 27.9242C82.7716 28.0074 82.8013 28.1052 82.8013 28.2053C82.8012 28.3394 82.7478 28.468 82.6529 28.5629C82.5581 28.6577 82.4295 28.7111 82.2953 28.7112ZM63.9848 1.14003C63.7847 1.14003 63.589 1.19938 63.4226 1.31057C63.2562 1.42176 63.1265 1.57979 63.0499 1.7647C62.9734 1.9496 62.9533 2.15306 62.9924 2.34935C63.0314 2.54564 63.1278 2.72594 63.2693 2.86746C63.4108 3.00898 63.5911 3.10535 63.7874 3.1444C63.9837 3.18344 64.1872 3.1634 64.3721 3.08681C64.557 3.01022 64.715 2.88053 64.8262 2.71412C64.9374 2.54771 64.9967 2.35207 64.9967 2.15193C64.9964 1.88366 64.8897 1.62645 64.7 1.43675C64.5103 1.24705 64.2531 1.14034 63.9848 1.14003ZM63.9848 2.65789C63.8848 2.65789 63.7869 2.62821 63.7037 2.57262C63.6205 2.51702 63.5557 2.43801 63.5174 2.34555C63.4791 2.2531 63.4691 2.15137 63.4886 2.05323C63.5081 1.95508 63.5563 1.86493 63.6271 1.79417C63.6978 1.72341 63.788 1.67523 63.8861 1.6557C63.9843 1.63618 64.086 1.6462 64.1784 1.6845C64.2709 1.72279 64.3499 1.78764 64.4055 1.87084C64.4611 1.95405 64.4908 2.05187 64.4908 2.15193C64.4906 2.28608 64.4373 2.41469 64.3424 2.50955C64.2476 2.6044 64.119 2.65775 63.9848 2.65789ZM41.488 7.96703C41.2878 7.96703 41.0922 8.02638 40.9258 8.13757C40.7594 8.24876 40.6297 8.40679 40.5531 8.59169C40.4765 8.7766 40.4565 8.98006 40.4955 9.17635C40.5346 9.37264 40.6309 9.55294 40.7725 9.69446C40.914 9.83598 41.0943 9.93235 41.2906 9.9714C41.4869 10.0104 41.6903 9.9904 41.8752 9.91381C42.0601 9.83722 42.2182 9.70752 42.3293 9.54112C42.4405 9.37471 42.4999 9.17907 42.4999 8.97893C42.4996 8.71065 42.3929 8.45345 42.2032 8.26375C42.0135 8.07404 41.7563 7.96734 41.488 7.96703ZM41.488 9.48489C41.3879 9.48489 41.2901 9.45521 41.2069 9.39962C41.1237 9.34402 41.0588 9.265 41.0205 9.17255C40.9822 9.0801 40.9722 8.97837 40.9917 8.88023C41.0113 8.78208 41.0595 8.69193 41.1302 8.62117C41.201 8.55041 41.2911 8.50223 41.3893 8.4827C41.4874 8.46318 41.5891 8.4732 41.6816 8.51149C41.774 8.54979 41.8531 8.61464 41.9087 8.69784C41.9643 8.78104 41.9939 8.87887 41.9939 8.97893C41.9938 9.11308 41.9404 9.24169 41.8456 9.33655C41.7507 9.4314 41.6221 9.48475 41.488 9.48489ZM15.5158 14.7391C15.5158 14.5389 15.4564 14.3433 15.3452 14.1769C15.234 14.0105 15.076 13.8808 14.8911 13.8042C14.7062 13.7276 14.5027 13.7076 14.3064 13.7466C14.1101 13.7857 13.9298 13.882 13.7883 14.0235C13.6468 14.1651 13.5504 14.3454 13.5114 14.5417C13.4723 14.7379 13.4924 14.9414 13.569 15.1263C13.6456 15.3112 13.7753 15.4692 13.9417 15.5804C14.1081 15.6916 14.3037 15.751 14.5039 15.751C14.7721 15.7507 15.0293 15.644 15.219 15.4543C15.4087 15.2646 15.5155 15.0074 15.5158 14.7391ZM13.9979 14.7391C13.9979 14.639 14.0276 14.5412 14.0832 14.458C14.1388 14.3748 14.2178 14.3099 14.3102 14.2716C14.4027 14.2333 14.5044 14.2233 14.6026 14.2428C14.7007 14.2624 14.7909 14.3106 14.8616 14.3813C14.9324 14.4521 14.9806 14.5422 15.0001 14.6404C15.0196 14.7385 15.0096 14.8402 14.9713 14.9327C14.933 15.0251 14.8681 15.1042 14.7849 15.1598C14.7017 15.2154 14.6039 15.245 14.5039 15.245C14.3697 15.2449 14.2411 15.1915 14.1462 15.0967C14.0514 15.0018 13.998 14.8732 13.9979 14.7391Z" fill="#1E1E1E"/>
<path d="M5.50857 34.7883L6.26092 33.7991L5.78583 33.53L5.30265 34.638H5.28697L4.79619 33.5376L4.31301 33.8148L5.05726 34.7807V34.7964L3.89307 34.6461V35.1839L5.06485 35.0337V35.0498L4.31301 36.0152L4.76381 36.3006L5.27887 35.1839H5.29455L5.76964 36.2925L6.26851 36.0076L5.50857 35.0574V35.0418L6.70363 35.1839V34.6461L5.50857 34.804V34.7883Z" fill="#00A851"/>
<path d="M2.901 6.02084L2.4679 6.57688L2.72796 6.74131L3.02445 6.09825H3.03356L3.30677 6.73625L3.59415 6.57232L3.1565 6.02539V6.01628L3.8446 6.09825V5.7881L3.1565 5.87917V5.87006L3.5896 5.30036L3.31638 5.14554L3.03811 5.78354H3.029L2.74668 5.15009L2.4679 5.30947L2.89695 5.86601V5.87512L2.22656 5.7881V6.09825L2.901 6.01173V6.02084Z" fill="#00A851"/>
<path d="M30.7232 3.7744V3.24669L29.5509 3.40202V3.38633L30.2891 2.41592L29.8231 2.15181L29.3496 3.2386H29.3334L28.8527 2.1594L28.3781 2.4316L29.1087 3.37874V3.39443L27.9668 3.24669V3.7744L29.1163 3.62717V3.64285L28.3781 4.58999L28.8208 4.86979L29.3263 3.7744H29.341L29.8069 4.86169L30.2967 4.5824L29.5509 3.65044V3.63476L30.7232 3.7744Z" fill="#00A851"/>
<path d="M81.2841 6.63354L81.9205 5.79669L81.5188 5.56902L81.11 6.50654H81.0964L80.6815 5.57559L80.2727 5.80985L80.9026 6.62747V6.64062L79.9175 6.51312V6.96848L80.9091 6.84149V6.85515L80.2727 7.67175L80.6541 7.91309L81.0898 6.96848H81.1029L81.5052 7.90652L81.9271 7.66518L81.2841 6.86122V6.84806L82.2955 6.96848V6.51312L81.2841 6.6472V6.63354Z" fill="#00A851"/>
</g>
<defs>
<clipPath id="clip0_1280_17728">
<rect width="85" height="85" fill="white"/>
</clipPath>
</defs>
</svg>
