<svg width="193" height="150" viewBox="0 0 193 150" fill="none" xmlns="http://www.w3.org/2000/svg">
<g clip-path="url(#clip0_4_75)">
<path d="M149.006 52.561L130.752 34.3072H124.708V24.2963H114.697V18.2538L96.4449 0L78.1912 18.2538V24.2979H68.1803V34.3088H62.1362L43.8824 52.5626L62.1362 70.8163H68.1803V80.8272H78.1912V86.8714L96.4449 105.125L114.699 86.8714V80.8272H124.71V70.8163H130.754L149.006 52.561ZM122.782 78.8981H70.1078V26.2238H122.782V78.8981Z" fill="#077747"/>
<path d="M78.4944 59.9965V70.5115H89.0095L96.445 77.9471L103.881 70.5115H114.396V59.9965L121.831 52.5609L114.396 45.1254V34.6103H103.879L96.4434 27.1748L89.0079 34.6103H78.4912V45.1254L71.0557 52.5609L78.4944 59.9965ZM79.4581 69.5478V60.9602L80.1203 61.6224H87.3835V68.8856L88.0457 69.5478H79.4581ZM79.4581 45.5243L80.5192 44.4632H88.3473V36.6352L89.4084 35.5741H90.9098L96.1035 40.7694L92.231 44.6419V48.3469H88.5244L84.6518 52.2195L79.4565 47.0242V45.5243H79.4581ZM104.543 36.6352V44.4632H112.371L113.432 45.5243V47.0258L108.237 52.2211L104.364 48.3469H100.657V44.6403L96.7849 40.7678L101.979 35.5725H103.48L104.543 36.6352ZM113.432 59.5976L112.371 60.6587H104.543V68.4867L103.482 69.5478H101.98L96.7849 64.3525L100.657 60.4799V56.7733H104.364L108.237 52.9008L113.432 58.0961V59.5976ZM84.6534 52.9024L88.526 56.7749H92.2326V60.4815L96.1051 64.3541L90.9098 69.5494H89.4084L88.3473 68.4883V60.6603H80.5192L79.4581 59.5992V58.0977L84.6534 52.9024ZM96.445 76.5844L90.3721 70.5115H91.3087L96.445 65.3753L101.581 70.5115H102.518L96.445 76.5844ZM113.432 69.5478H104.844L105.506 68.8856V61.6224H112.77L113.432 60.9602V69.5478ZM120.468 52.5609L114.396 58.6338V57.6972L109.259 52.5609L114.396 47.4247V46.4881L120.468 52.5609ZM113.432 35.5741V44.1633L112.77 43.5011H105.506V36.2363L104.844 35.5741H113.432ZM96.445 28.5375L102.518 34.6103H101.581L96.445 39.7466L91.3087 34.6103H90.3721L96.445 28.5375ZM79.4581 35.5741H88.0473L87.3851 36.2363V43.4995H80.1219L79.4597 44.1617V35.5741H79.4581ZM83.6307 52.5609L78.4928 57.6972V58.6338L72.4199 52.5609L78.4928 46.4881V47.4247L83.6307 52.5609Z" fill="#39B048"/>
<path d="M17.1975 145.55C16.4842 145.539 15.7423 145.352 14.9732 144.99C14.2025 144.628 13.5467 144.079 13.0074 143.343C12.3979 142.446 11.9463 141.317 11.6527 139.954C11.3591 138.591 11.2123 137.157 11.2123 135.651C11.2123 134.57 11.281 133.489 11.4198 132.408C11.8793 128.959 12.9196 125.807 14.5424 122.956C13.8531 122.841 13.1733 122.784 12.5064 122.784C10.839 122.819 9.42526 123.152 8.26366 123.784C6.73347 124.612 5.96917 125.825 5.96917 127.424C5.96917 127.896 6.033 128.332 6.15905 128.735C6.47019 129.425 6.84357 129.862 7.28076 130.045C7.68286 130.253 8.05623 130.379 8.40247 130.425L8.35142 130.494C7.90305 131.125 7.31587 131.655 6.59146 132.081C6.02821 132.404 5.38358 132.565 4.65918 132.565C4.31453 132.565 3.95711 132.518 3.59012 132.426C2.39341 132.104 1.42328 131.328 0.674942 130.098C0.224981 129.255 0 128.335 0 127.334C0 125.207 0.931835 123.39 2.79391 121.884C4.24272 120.746 6.04736 119.993 8.20941 119.624C8.93381 119.509 9.67577 119.452 10.4337 119.452C11.9048 119.452 13.4175 119.693 14.97 120.176L16.0391 120.574C18.8441 116.687 22.4789 113.548 26.9403 111.156C27.3886 110.904 27.8019 110.611 28.1816 110.277C28.5614 109.944 28.906 109.507 29.2172 108.966V142.272C28.8486 141.652 28.421 141.154 27.9327 140.781C27.4445 140.407 26.9403 140.082 26.4233 139.806C25.9637 139.552 25.5441 139.285 25.1643 139.003C24.7846 138.722 24.475 138.368 24.2325 137.942C23.9916 137.516 23.8703 136.959 23.8703 136.268L23.8528 134.681C23.8288 134.002 23.7778 133.315 23.698 132.619C23.6182 131.923 23.4507 131.22 23.1986 130.506C22.6465 129 21.7673 127.598 20.5594 126.297C19.7425 125.412 18.8282 124.687 17.8166 124.124C16.5624 127.033 15.9369 130.034 15.9369 133.128C15.9369 134.554 16.0949 135.939 16.4108 137.285C16.7268 138.63 17.2677 139.817 18.032 140.846C18.7963 141.875 19.8398 142.667 21.1626 143.217C20.8179 143.862 20.277 144.411 19.5414 144.864C18.8058 145.322 18.024 145.55 17.1975 145.55ZM23.8543 127.231L23.8719 116.208C21.8471 117.703 20.1749 119.651 18.8521 122.056C20.9344 123.436 22.6018 125.161 23.8543 127.231Z" fill="#39B048"/>
<path d="M37.2224 139.426C35.3252 139.426 33.9913 138.899 33.2206 137.848C32.4499 136.796 32.0654 135.407 32.0654 133.682V115.002C32.0654 113.679 32.6685 112.639 33.8764 111.879L34.446 111.568C35.0555 111.257 35.6076 110.916 36.1023 110.542C36.5969 110.169 37.0341 109.653 37.4138 108.999V133.268C37.4138 134.258 37.5527 134.933 37.8271 135.295C38.1032 135.657 38.609 135.839 39.3445 135.839C40.0913 135.839 40.6992 135.526 41.1635 134.899C41.6294 134.272 41.9023 133.493 41.9821 132.562H43.5346C43.1548 135.309 42.2581 137.213 40.8444 138.271C39.8089 139.041 38.6026 139.426 37.2224 139.426Z" fill="#39B048"/>
<path d="M65.3896 139.426C64.2743 139.426 63.3201 139.21 62.5271 138.78C61.7341 138.349 61.107 137.747 60.6475 136.977C59.8656 138.127 58.8429 138.869 57.5775 139.202C56.9457 139.352 56.3122 139.427 55.6804 139.427C54.8985 139.427 54.1709 139.301 53.4992 139.048C52.8258 138.796 52.2833 138.392 51.8685 137.84C51.0978 136.782 50.7132 135.391 50.7132 133.666V124.006C50.7132 122.696 51.3164 121.66 52.5242 120.901L53.0588 120.607C53.6795 120.285 54.2411 119.937 54.7405 119.564C55.24 119.19 55.6804 118.67 56.0601 118.003V133.251C56.0601 133.836 56.1064 134.32 56.1973 134.7C56.2899 135.079 56.4766 135.36 56.7574 135.545C57.0398 135.729 57.4499 135.821 57.9908 135.821C58.3929 135.821 58.7152 135.657 58.9561 135.33C59.1971 135.003 59.379 134.591 59.5002 134.097C59.6215 133.602 59.6981 133.085 59.7332 132.544V124.006C59.7332 122.696 60.3427 121.66 61.5618 120.901L62.1314 120.59C62.7409 120.267 63.2898 119.923 63.7781 119.554C64.2663 119.186 64.7003 118.669 65.0801 118.002V133.249C65.0801 133.698 65.12 134.117 65.2014 134.508C65.2811 134.899 65.4375 135.215 65.6673 135.458C65.897 135.699 66.2369 135.82 66.6853 135.82C67.3634 135.82 67.9267 135.595 68.375 135.146C69.1569 134.376 69.7441 133.227 70.135 131.697C70.7796 129.351 71.1003 127.023 71.1003 124.711C71.1003 123.274 70.9392 121.882 70.6169 120.537C70.2945 119.192 69.752 118.002 68.9861 116.966C68.2219 115.931 67.1831 115.144 65.8731 114.603C66.2178 113.958 66.7587 113.413 67.4943 112.964C68.2298 112.516 69.0117 112.291 69.8398 112.291C70.5291 112.291 71.2136 112.474 71.8918 112.843C72.5699 113.212 73.1682 113.757 73.6852 114.482C74.6968 115.977 75.2026 118.254 75.2026 121.313C75.2026 123.084 75.0527 124.845 74.7543 126.599C74.4559 128.352 74.0953 129.833 73.6756 131.041C73.256 132.249 72.7821 133.307 72.2524 134.215C71.7226 135.123 71.1657 135.928 70.5786 136.629C69.9467 137.514 69.2159 138.202 68.3878 138.69C67.5629 139.182 66.5624 139.426 65.3896 139.426Z" fill="#39B048"/>
<path d="M91.6757 139.461C90.4678 139.461 89.5216 139.156 88.8387 138.547C88.1542 137.937 87.6739 137.104 87.3979 136.046C86.9383 137.071 86.3256 137.894 85.5613 138.521C84.797 139.148 83.8109 139.461 82.6031 139.461C81.7638 139.461 80.9676 139.303 80.2144 138.987C79.4613 138.671 78.78 138.197 78.1705 137.564C77.4923 136.839 76.9833 135.989 76.6435 135.011C76.3036 134.034 76.1345 133.039 76.1345 132.027C76.1345 131.418 76.1983 130.814 76.3243 130.216C76.7376 128.469 77.4971 127.049 78.6013 125.956C79.7054 124.863 81.0106 123.909 82.5169 123.093C83.2876 122.667 84.1045 122.243 84.9662 121.817C86.4501 121.116 87.8494 120.331 89.1658 119.463C90.4822 118.595 91.4284 117.541 92.0028 116.298V133.288C92.0028 133.875 92.0491 134.357 92.14 134.736C92.2326 135.116 92.4192 135.399 92.7001 135.582C92.9809 135.766 93.3926 135.858 93.9335 135.858C94.4856 135.858 94.9515 135.694 95.3312 135.367C95.711 135.04 96.0046 134.628 96.2104 134.133C96.4178 133.639 96.5375 133.122 96.5726 132.581H98.1251C97.9416 134.098 97.5954 135.306 97.0896 136.203C96.6763 136.973 96.1689 137.623 95.5722 138.153C94.6084 139.024 93.308 139.461 91.6757 139.461ZM84.0694 135.908C84.3806 135.908 84.7188 135.821 85.0874 135.649C85.6618 135.351 86.0671 134.907 86.3033 134.322C86.5394 133.734 86.6575 133.125 86.6575 132.493V123.352L85.7257 123.886C84.3231 124.69 83.3163 125.547 82.7068 126.457C81.9138 127.641 81.5164 129.268 81.5164 131.338C81.5164 133.04 81.885 134.333 82.6206 135.218C83.0004 135.678 83.4822 135.908 84.0694 135.908Z" fill="#39B048"/>
<path d="M103.767 139.426C102.513 139.426 101.336 139.214 100.231 138.788C98.8177 138.189 97.7534 137.304 97.0402 136.131C96.5918 135.395 96.3668 134.647 96.3668 133.889C96.378 133.004 96.5966 132.204 97.0226 131.491C97.597 130.605 98.4427 129.921 99.558 129.439C99.8564 129.313 100.064 129.249 100.179 129.249C100.236 129.249 100.265 129.273 100.265 129.318C100.265 129.364 100.23 129.444 100.161 129.559C100.093 129.674 100.029 129.806 99.9713 129.956C99.8564 130.21 99.799 130.526 99.799 130.905C99.799 131.987 100.236 132.992 101.111 133.924C101.835 134.591 102.778 135.017 103.94 135.201C104.251 135.247 104.567 135.269 104.889 135.269C105.739 135.269 106.568 135.13 107.373 134.856C107.89 134.673 108.331 134.448 108.693 134.183C109.055 133.918 109.237 133.637 109.237 133.337C109.213 132.992 108.943 132.641 108.426 132.286C107.771 131.826 106.368 131.078 104.217 130.044C103.504 129.699 102.808 129.354 102.13 129.008C101.119 128.48 99.7431 127.732 98.0071 126.766L98.3342 126.214L100.37 122.316C101.521 122.224 102.601 121.914 103.612 121.384C104.2 121.108 104.731 120.792 105.208 120.435C105.685 120.079 106.076 119.696 106.381 119.288C106.686 118.879 106.941 118.456 107.148 118.019L107.183 118.088C107.506 118.514 107.764 119.031 107.959 119.64C108.063 120.009 108.114 120.411 108.114 120.848C108.114 121.228 108.063 121.608 107.959 121.986C107.487 123.274 106.762 124.256 105.786 124.936C106.223 125.212 106.751 125.523 107.373 125.868C108.063 126.225 108.822 126.69 109.65 127.266C110.064 127.542 110.45 127.864 110.805 128.231C111.634 129.082 112.047 130.232 112.047 131.681C112.047 132.175 112.001 132.675 111.908 133.182C111.725 134.459 111.137 135.638 110.148 136.718C109.631 137.27 109.004 137.77 108.268 138.218C106.946 139.024 105.446 139.426 103.767 139.426Z" fill="#39B048"/>
<path d="M119.066 150C118.421 149.552 117.858 149.121 117.376 148.706C116.674 148.096 116.157 147.455 115.824 146.783C115.49 146.11 115.324 145.457 115.324 144.825C115.324 143.86 115.654 143.043 116.317 142.376C116.977 141.709 117.888 141.376 119.05 141.376C119.05 141.996 119.173 142.592 119.42 143.161C119.667 143.731 120.066 144.158 120.618 144.446C120.941 144.618 121.274 144.704 121.619 144.704C121.93 144.704 122.263 144.618 122.619 144.446C123.171 144.158 123.57 143.729 123.818 143.161C124.065 142.592 124.188 141.996 124.188 141.376L124.223 137.012C123.441 138.138 122.423 138.869 121.17 139.203C120.539 139.352 119.905 139.427 119.273 139.427C118.491 139.427 117.764 139.301 117.092 139.048C116.419 138.796 115.876 138.392 115.461 137.84C114.691 136.782 114.306 135.391 114.306 133.666V124.006C114.306 122.696 114.909 121.66 116.117 120.901L116.687 120.574C117.296 120.263 117.848 119.921 118.343 119.548C118.838 119.174 119.275 118.659 119.655 118.005V133.252C119.655 133.838 119.701 134.322 119.793 134.701C119.886 135.081 120.073 135.362 120.354 135.547C120.636 135.73 121.046 135.823 121.587 135.823C122.139 135.823 122.602 135.659 122.975 135.332C123.348 135.004 123.642 134.593 123.854 134.098C124.067 133.604 124.191 133.087 124.224 132.546V124.008C124.224 122.698 124.828 121.662 126.036 120.902L126.605 120.575C127.215 120.264 127.767 119.923 128.261 119.549C128.756 119.176 129.193 118.661 129.573 118.006V137.963C129.573 139.274 129.362 140.401 128.943 141.344C128.523 142.287 127.979 143.094 127.312 143.768C126.645 144.441 125.914 145.026 125.121 145.528C124.328 146.029 123.546 146.478 122.776 146.882C121.855 147.353 121.057 147.832 120.377 148.313C119.698 148.792 119.262 149.355 119.066 150Z" fill="#39B048"/>
<path d="M137.246 150C136.602 149.552 136.038 149.121 135.556 148.706C134.854 148.096 134.337 147.455 134.004 146.783C133.67 146.11 133.505 145.457 133.505 144.825C133.505 143.86 133.835 143.043 134.497 142.376C135.158 141.709 136.069 141.376 137.23 141.376C137.23 141.996 137.353 142.592 137.6 143.161C137.848 143.731 138.247 144.158 138.799 144.446C139.121 144.618 139.455 144.704 139.799 144.704C140.11 144.704 140.444 144.618 140.8 144.446C141.352 144.158 141.751 143.729 141.998 143.161C142.245 142.592 142.368 141.996 142.368 141.376L142.403 137.012C141.621 138.138 140.603 138.869 139.351 139.203C138.719 139.352 138.086 139.427 137.454 139.427C136.672 139.427 135.944 139.301 135.272 139.048C134.599 138.796 134.057 138.392 133.642 137.84C132.871 136.782 132.487 135.391 132.487 133.666V124.006C132.487 122.696 133.09 121.66 134.298 120.901L134.867 120.574C135.477 120.263 136.029 119.921 136.523 119.548C137.018 119.174 137.455 118.659 137.835 118.005V133.252C137.835 133.838 137.881 134.322 137.974 134.701C138.066 135.081 138.253 135.362 138.534 135.547C138.816 135.73 139.226 135.823 139.767 135.823C140.319 135.823 140.782 135.659 141.155 135.332C141.529 135.004 141.822 134.593 142.035 134.098C142.247 133.604 142.371 133.087 142.405 132.546V124.008C142.405 122.698 143.008 121.662 144.216 120.902L144.785 120.575C145.395 120.264 145.947 119.923 146.442 119.549C146.936 119.176 147.374 118.661 147.753 118.006V137.963C147.753 139.274 147.543 140.401 147.123 141.344C146.703 142.287 146.159 143.094 145.492 143.768C144.825 144.441 144.095 145.026 143.302 145.528C142.509 146.029 141.727 146.478 140.956 146.882C140.035 147.353 139.238 147.832 138.558 148.313C137.878 148.792 137.441 149.355 137.246 150Z" fill="#39B048"/>
<path d="M166.034 139.461C164.826 139.461 163.88 139.156 163.197 138.547C162.513 137.937 162.032 137.104 161.756 136.046C161.297 137.071 160.684 137.894 159.92 138.521C159.156 139.148 158.169 139.461 156.962 139.461C156.122 139.461 155.326 139.303 154.573 138.987C153.82 138.671 153.139 138.197 152.529 137.564C151.851 136.839 151.342 135.989 151.002 135.011C150.662 134.034 150.493 133.039 150.493 132.027C150.493 131.418 150.557 130.814 150.683 130.216C151.096 128.469 151.856 127.049 152.96 125.956C154.064 124.863 155.369 123.909 156.875 123.093C157.646 122.667 158.463 122.243 159.325 121.817C160.809 121.116 162.208 120.331 163.524 119.463C164.841 118.595 165.787 117.541 166.361 116.298V133.288C166.361 133.875 166.408 134.357 166.499 134.736C166.591 135.116 166.778 135.399 167.059 135.582C167.339 135.766 167.751 135.858 168.292 135.858C168.844 135.858 169.31 135.694 169.69 135.367C170.07 135.04 170.363 134.628 170.569 134.133C170.776 133.639 170.896 133.122 170.931 132.581H172.484C172.3 134.098 171.954 135.306 171.448 136.203C171.035 136.973 170.527 137.623 169.931 138.153C168.967 139.024 167.667 139.461 166.034 139.461ZM158.428 135.908C158.739 135.908 159.077 135.821 159.446 135.649C160.02 135.351 160.426 134.907 160.662 134.322C160.898 133.734 161.016 133.125 161.016 132.493V123.352L160.084 123.886C158.682 124.69 157.675 125.547 157.065 126.457C156.272 127.641 155.875 129.268 155.875 131.338C155.875 133.04 156.244 134.333 156.979 135.218C157.357 135.678 157.841 135.908 158.428 135.908Z" fill="#39B048"/>
<path d="M176.262 136.27C176.262 136.959 176.141 137.518 175.9 137.944C175.659 138.37 175.348 138.722 174.968 139.005C174.588 139.285 174.169 139.554 173.709 139.807C173.192 140.083 172.688 140.409 172.2 140.782C171.711 141.156 171.282 141.653 170.915 142.274V114.779C171.008 113.502 171.611 112.541 172.726 111.898C172.921 111.784 173.111 111.673 173.296 111.571C173.905 111.26 174.457 110.919 174.952 110.545C175.447 110.172 175.884 109.657 176.264 109.002V121.956C176.77 121.668 177.264 121.392 177.748 121.127C178.656 120.655 179.444 120.181 180.111 119.704C180.778 119.227 181.204 118.672 181.387 118.04C183.549 119.535 184.981 121.005 185.683 122.447C186.383 123.889 186.734 125.688 186.734 127.837L186.769 130.165L186.752 133.27C186.752 133.857 186.798 134.339 186.889 134.719C186.981 135.099 187.168 135.379 187.449 135.565C187.73 135.748 188.141 135.841 188.682 135.841C189.234 135.841 189.7 135.676 190.08 135.349C190.46 135.022 190.753 134.61 190.959 134.116C191.167 133.621 191.286 133.104 191.321 132.563H192.892C192.684 134.081 192.333 135.288 191.84 136.185C191.427 136.956 190.923 137.605 190.331 138.133C189.739 138.663 189.057 139.019 188.287 139.202C187.642 139.352 187.004 139.427 186.372 139.427C185.59 139.427 184.862 139.303 184.191 139.057C183.519 138.812 182.975 138.411 182.56 137.859C181.789 136.801 181.405 135.41 181.405 133.685V126.648C181.405 126.039 181.28 125.447 181.035 124.872C180.787 124.298 180.388 123.872 179.836 123.596C179.514 123.424 179.18 123.337 178.836 123.337C178.525 123.337 178.191 123.424 177.835 123.596C177.283 123.872 176.884 124.298 176.637 124.872C176.39 125.447 176.267 126.04 176.267 126.648V136.27H176.262Z" fill="#39B048"/>
</g>
<defs>
<clipPath id="clip0_4_75">
<rect width="192.89" height="150" fill="white"/>
</clipPath>
</defs>
</svg>
