<svg width="51" height="51" viewBox="0 0 51 51" fill="none" xmlns="http://www.w3.org/2000/svg">
<g clip-path="url(#clip0_1280_17766)">
<path d="M23.5469 19.25C25.4011 19.25 27.2136 18.7002 28.7553 17.67C30.2971 16.6399 31.4987 15.1757 32.2082 13.4627C32.9178 11.7496 33.1035 9.8646 32.7417 8.04603C32.38 6.22745 31.4871 4.55699 30.176 3.24587C28.8649 1.93475 27.1944 1.04187 25.3758 0.680135C23.5573 0.318398 21.6723 0.504054 19.9592 1.21363C18.2462 1.9232 16.782 3.12481 15.7518 4.66653C14.7217 6.20824 14.1719 8.0208 14.1719 9.875C14.1747 12.3605 15.1633 14.7435 16.9208 16.501C18.6784 18.2586 21.0613 19.2472 23.5469 19.25ZM23.5469 2.0625C25.092 2.0625 26.6025 2.52069 27.8873 3.37914C29.172 4.23759 30.1734 5.45773 30.7647 6.88528C31.356 8.31283 31.5107 9.88366 31.2093 11.3991C30.9078 12.9146 30.1637 14.3067 29.0711 15.3993C27.9785 16.4919 26.5865 17.2359 25.071 17.5374C23.5555 17.8388 21.9847 17.6841 20.5572 17.0928C19.1296 16.5015 17.9095 15.5001 17.051 14.2154C16.1926 12.9306 15.7344 11.4202 15.7344 9.875C15.7368 7.80372 16.5606 5.81796 18.0252 4.35335C19.4898 2.88874 21.4756 2.06487 23.5469 2.0625ZM27.5984 20.0312H30.1875C31.7842 20.0311 33.3615 20.3812 34.8082 21.0568C36.2549 21.7325 37.5358 22.7173 38.5605 23.9418C39.2807 23.9537 39.9973 24.0454 40.6973 24.2152C39.5762 22.4705 38.0386 21.0321 36.223 20.0297C34.4075 19.0273 32.3711 18.4923 30.2973 18.473C29.4766 19.1186 28.5678 19.6433 27.5984 20.0312ZM41.125 48.1562C41.125 48.3634 41.0427 48.5622 40.8962 48.7087C40.7497 48.8552 40.5509 48.9375 40.3438 48.9375H34.875V43.4687C34.875 43.2615 34.7927 43.0628 34.6462 42.9163C34.4997 42.7698 34.301 42.6875 34.0938 42.6875C33.8865 42.6875 33.6878 42.7698 33.5413 42.9163C33.3948 43.0628 33.3125 43.2615 33.3125 43.4687V48.9375H13.7812V43.4687C13.7812 43.2615 13.6989 43.0628 13.5524 42.9163C13.4059 42.7698 13.2072 42.6875 13 42.6875C12.7928 42.6875 12.5941 42.7698 12.4476 42.9163C12.3011 43.0628 12.2188 43.2615 12.2188 43.4687V48.9375H6.75C6.5428 48.9375 6.34409 48.8552 6.19757 48.7087C6.05106 48.5622 5.96875 48.3634 5.96875 48.1562V30.9687C5.97196 28.0689 7.12533 25.2888 9.17581 23.2383C11.2263 21.1878 14.0064 20.0345 16.9062 20.0312H19.4953C18.526 19.6428 17.6173 19.1176 16.7969 18.4715C13.5022 18.5037 10.3532 19.834 8.03335 22.1738C5.71355 24.5136 4.41021 27.6739 4.40625 30.9687V48.1562C4.40697 48.7776 4.65414 49.3733 5.09352 49.8127C5.5329 50.2521 6.12862 50.4993 6.75 50.5H40.3438C40.9651 50.4993 41.5608 50.2521 42.0002 49.8127C42.4396 49.3733 42.6868 48.7776 42.6875 48.1562V42.4699C42.1852 42.7174 41.6624 42.9209 41.125 43.0781V48.1562Z" fill="#1E1E1E"/>
<path d="M38.3906 25.5C36.7682 25.5 35.1822 25.9811 33.8332 26.8825C32.4842 27.7838 31.4328 29.065 30.8119 30.5639C30.1911 32.0628 30.0286 33.7122 30.3451 35.3035C30.6616 36.8947 31.4429 38.3564 32.5901 39.5036C33.7374 40.6508 35.199 41.4321 36.7903 41.7486C38.3815 42.0651 40.0309 41.9027 41.5298 41.2818C43.0288 40.6609 44.3099 39.6095 45.2113 38.2605C46.1126 36.9115 46.5938 35.3256 46.5938 33.7031C46.5913 31.5283 45.7262 29.4432 44.1884 27.9054C42.6505 26.3675 40.5655 25.5025 38.3906 25.5ZM38.3906 40.3438C37.0772 40.3438 35.7933 39.9543 34.7013 39.2246C33.6092 38.4949 32.7581 37.4578 32.2555 36.2444C31.7529 35.031 31.6214 33.6958 31.8776 32.4076C32.1338 31.1194 32.7663 29.9362 33.695 29.0075C34.6237 28.0788 35.807 27.4463 37.0951 27.1901C38.3833 26.9339 39.7185 27.0654 40.9319 27.568C42.1453 28.0706 43.1824 28.9217 43.9121 30.0138C44.6418 31.1058 45.0313 32.3897 45.0313 33.7031C45.0293 35.4637 44.329 37.1517 43.0841 38.3966C41.8392 39.6415 40.1512 40.3418 38.3906 40.3438Z" fill="#21DE32"/>
<path d="M40.6437 31.5254L37.2409 34.1879L36.2519 33.0238C36.1854 32.9456 36.1043 32.8813 36.013 32.8344C35.9217 32.7876 35.822 32.7592 35.7198 32.7509C35.6175 32.7426 35.5146 32.7545 35.4169 32.7859C35.3192 32.8174 35.2287 32.8677 35.1505 32.9342C35.0723 33.0006 35.0079 33.0818 34.9611 33.1731C34.9143 33.2644 34.8859 33.364 34.8776 33.4663C34.8693 33.5686 34.8812 33.6715 34.9126 33.7691C34.944 33.8668 34.9944 33.9573 35.0609 34.0355L36.5359 35.7715C36.6692 35.921 36.8537 36.0152 37.0531 36.0354C37.2524 36.0557 37.4521 36.0005 37.6128 35.8809L41.6066 32.7559C41.7676 32.6275 41.8715 32.4407 41.8955 32.2361C41.9196 32.0315 41.8618 31.8257 41.7349 31.6635C41.6079 31.5012 41.422 31.3957 41.2177 31.3699C41.0133 31.344 40.807 31.3999 40.6437 31.5254Z" fill="#21DE32"/>
</g>
<defs>
<clipPath id="clip0_1280_17766">
<rect width="50" height="50" fill="white" transform="translate(0.5 0.5)"/>
</clipPath>
</defs>
</svg>
