<svg width="338" height="274" viewBox="0 0 338 274" fill="none" xmlns="http://www.w3.org/2000/svg">
<g clip-path="url(#clip0_318_1748)">
<path d="M278.717 273.225L130.969 273.797L88.437 260.19C86.919 259.703 87.2153 257.475 88.8064 257.402L255.724 249.659L278.717 273.225Z" fill="#E0E0E0"/>
<path d="M273.563 272.174H180.661C169.95 272.174 158.959 263.493 156.113 252.784L94.4806 21.0135C91.6354 10.3039 98.0077 1.62329 108.719 1.62329H201.621C212.332 1.62329 223.323 10.3039 226.168 21.0135L287.801 252.784C290.646 263.493 284.274 272.174 273.563 272.174Z" fill="white"/>
<path d="M273.993 273.797H181.091C169.503 273.797 157.57 264.37 154.49 252.784L92.8571 21.0136C89.7764 9.42729 96.7007 0 108.289 0H201.19C212.778 0 224.711 9.42729 227.792 21.0136L289.424 252.784C292.501 264.37 285.581 273.797 273.993 273.797ZM109.149 3.24659C99.3511 3.24659 93.4983 11.217 96.1041 21.0136L157.737 252.784C160.343 262.58 170.433 270.551 180.231 270.551H273.132C282.93 270.551 288.783 262.58 286.177 252.784L224.545 21.0136C221.939 11.217 211.849 3.24659 202.051 3.24659H109.149Z" fill="#231F20"/>
<path d="M109.591 80.5235H106.344L97.683 47.9562H100.93L109.591 80.5235Z" fill="#231F20"/>
<path d="M255.724 119.588H252.477L238.422 66.7296H241.669L255.724 119.588Z" fill="#231F20"/>
<path d="M174.938 21.3382H145.268C141.932 21.3382 138.506 18.6314 137.617 15.2955C136.729 11.9597 138.717 9.25281 142.054 9.25281H171.723C175.06 9.25281 178.485 11.9597 179.374 15.2955C180.259 18.6314 178.274 21.3382 174.938 21.3382Z" fill="#231F20"/>
<path d="M152.635 134.685H144.144C143.129 134.685 142.082 133.861 141.814 132.842L137.792 117.717C137.524 116.703 138.129 115.879 139.144 115.879H147.635C148.649 115.879 149.696 116.703 149.964 117.717L153.987 132.842C154.254 133.861 153.65 134.685 152.635 134.685ZM139.249 116.285C138.458 116.285 137.987 116.93 138.194 117.717L142.216 132.842C142.427 133.634 143.243 134.279 144.034 134.279H152.525C153.317 134.279 153.788 133.634 153.577 132.842L149.554 117.717C149.343 116.926 148.527 116.285 147.74 116.285H139.249Z" fill="#231F20"/>
<path d="M169.081 134.685H160.59C159.575 134.685 158.528 133.861 158.26 132.842L154.238 117.717C153.97 116.703 154.575 115.879 155.59 115.879H164.081C165.095 115.879 166.143 116.703 166.41 117.717L170.433 132.842C170.701 133.861 170.096 134.685 169.081 134.685ZM155.699 116.285C154.908 116.285 154.437 116.93 154.648 117.717L158.67 132.842C158.881 133.634 159.697 134.279 160.485 134.279H168.976C169.767 134.279 170.238 133.634 170.027 132.842L166.005 117.721C165.794 116.93 164.978 116.289 164.19 116.289H155.699V116.285Z" fill="#231F20"/>
<path d="M185.527 134.685H177.036C176.022 134.685 174.975 133.861 174.707 132.842L170.684 117.717C170.417 116.703 171.021 115.879 172.036 115.879H180.527C181.542 115.879 182.589 116.703 182.857 117.717L186.879 132.842C187.151 133.861 186.542 134.685 185.527 134.685ZM172.146 116.285C171.354 116.285 170.883 116.93 171.09 117.717L175.113 132.842C175.324 133.634 176.139 134.279 176.931 134.279H185.422C186.213 134.279 186.684 133.634 186.477 132.842L182.455 117.717C182.244 116.926 181.428 116.285 180.641 116.285H172.146Z" fill="#231F20"/>
<path d="M201.978 134.685H193.487C192.472 134.685 191.425 133.861 191.157 132.842L187.135 117.717C186.867 116.703 187.472 115.879 188.486 115.879H196.977C197.992 115.879 199.039 116.703 199.307 117.717L203.329 132.842C203.597 133.861 202.992 134.685 201.978 134.685ZM188.592 116.285C187.8 116.285 187.33 116.93 187.537 117.717L191.559 132.842C191.77 133.634 192.586 134.279 193.377 134.279H201.868C202.66 134.279 203.13 133.634 202.923 132.842L198.901 117.717C198.69 116.926 197.874 116.285 197.087 116.285H188.592Z" fill="#231F20"/>
<path d="M218.424 134.685H209.933C208.918 134.685 207.871 133.861 207.603 132.842L203.581 117.717C203.313 116.703 203.918 115.879 204.932 115.879H213.423C214.438 115.879 215.485 116.703 215.753 117.717L219.775 132.842C220.043 133.861 219.439 134.685 218.424 134.685ZM205.042 116.285C204.251 116.285 203.78 116.93 203.991 117.717L208.013 132.842C208.224 133.634 209.04 134.279 209.827 134.279H218.318C219.11 134.279 219.581 133.634 219.37 132.842L215.347 117.717C215.136 116.926 214.32 116.285 213.533 116.285H205.042Z" fill="#231F20"/>
<path d="M234.87 134.685H226.379C225.364 134.685 224.317 133.861 224.049 132.842L220.027 117.717C219.759 116.703 220.364 115.879 221.379 115.879H229.87C230.884 115.879 231.932 116.703 232.199 117.717L236.222 132.842C236.494 133.861 235.885 134.685 234.87 134.685ZM221.488 116.285C220.697 116.285 220.226 116.93 220.433 117.717L224.455 132.842C224.666 133.634 225.482 134.279 226.274 134.279H234.765C235.556 134.279 236.027 133.634 235.816 132.842L231.794 117.717C231.582 116.926 230.771 116.285 229.979 116.285H221.488Z" fill="#231F20"/>
<path d="M239.063 169.797H164.036C162.246 169.797 160.412 168.348 159.937 166.558L158.009 159.306C157.534 157.516 158.597 156.068 160.387 156.068H235.41C237.2 156.068 239.034 157.516 239.509 159.306L241.437 166.558C241.912 168.348 240.849 169.797 239.063 169.797Z" fill="#39B048"/>
<path d="M190.922 164.517C190.861 164.728 190.727 164.898 190.524 165.028C190.321 165.158 190.045 165.227 189.692 165.227C189.351 165.227 189.03 165.166 188.734 165.04C188.433 164.915 188.178 164.744 187.963 164.529C187.748 164.314 187.589 164.066 187.492 163.786H188.202C188.255 163.932 188.344 164.075 188.466 164.213C188.588 164.35 188.742 164.464 188.925 164.557C189.107 164.647 189.31 164.691 189.533 164.691C189.826 164.691 190.029 164.614 190.142 164.456C190.256 164.302 190.28 164.099 190.215 163.855C190.158 163.644 190.061 163.474 189.915 163.344C189.769 163.214 189.606 163.109 189.428 163.036C189.245 162.959 189.006 162.877 188.705 162.792C188.352 162.687 188.06 162.585 187.841 162.488C187.618 162.394 187.411 162.252 187.224 162.062C187.033 161.871 186.899 161.619 186.814 161.311C186.741 161.043 186.745 160.808 186.818 160.601C186.891 160.398 187.037 160.239 187.248 160.126C187.459 160.012 187.727 159.959 188.056 159.959C188.563 159.959 188.998 160.081 189.359 160.329C189.72 160.576 189.976 160.889 190.126 161.266H189.412C189.318 161.063 189.164 160.881 188.953 160.726C188.742 160.572 188.49 160.491 188.198 160.491C187.93 160.491 187.735 160.56 187.61 160.698C187.488 160.836 187.459 161.035 187.524 161.287C187.577 161.485 187.675 161.648 187.813 161.774C187.951 161.899 188.105 161.997 188.279 162.066C188.454 162.135 188.689 162.216 188.985 162.301C189.347 162.407 189.639 162.512 189.866 162.61C190.094 162.707 190.305 162.853 190.499 163.052C190.694 163.251 190.832 163.51 190.922 163.835C190.978 164.083 190.982 164.31 190.922 164.517Z" fill="white"/>
<path d="M194.66 161.165L195.727 165.174H195.062L194.81 164.233C194.794 164.557 194.68 164.809 194.465 164.984C194.25 165.158 193.97 165.243 193.625 165.243C193.162 165.243 192.748 165.093 192.379 164.793C192.013 164.493 191.754 164.062 191.603 163.502L190.982 161.165H191.648L192.253 163.437C192.358 163.835 192.545 164.144 192.805 164.363C193.065 164.582 193.373 164.687 193.726 164.687C194.091 164.687 194.351 164.57 194.51 164.334C194.668 164.099 194.684 163.754 194.562 163.299L193.994 161.165H194.66Z" fill="white"/>
<path d="M198.942 161.364C199.262 161.53 199.546 161.769 199.786 162.078C200.025 162.39 200.204 162.756 200.314 163.174C200.423 163.592 200.443 163.957 200.366 164.265C200.289 164.574 200.135 164.813 199.904 164.975C199.668 165.142 199.376 165.223 199.019 165.223C198.629 165.223 198.272 165.126 197.951 164.927C197.627 164.728 197.375 164.468 197.184 164.148L197.456 165.17H196.791L195.354 159.765H196.019L196.661 162.183C196.677 161.863 196.795 161.603 197.014 161.404C197.233 161.205 197.533 161.108 197.927 161.108C198.284 161.112 198.621 161.197 198.942 161.364ZM197.241 161.883C197.062 162.001 196.945 162.175 196.888 162.399C196.831 162.622 196.839 162.881 196.92 163.174C196.998 163.466 197.123 163.721 197.302 163.945C197.476 164.168 197.688 164.338 197.927 164.46C198.166 164.582 198.418 164.643 198.678 164.643C199.092 164.643 199.388 164.513 199.563 164.253C199.741 163.993 199.766 163.632 199.644 163.178C199.522 162.723 199.303 162.362 198.986 162.098C198.67 161.834 198.309 161.709 197.895 161.709C197.635 161.705 197.42 161.765 197.241 161.883Z" fill="white"/>
<path d="M206.812 161.55C207.177 161.851 207.433 162.281 207.583 162.845L208.204 165.174H207.538L206.933 162.902C206.828 162.508 206.653 162.204 206.406 161.997C206.158 161.786 205.866 161.684 205.529 161.684C205.18 161.684 204.928 161.802 204.778 162.029C204.628 162.261 204.612 162.601 204.73 163.048L205.294 165.174H204.628L204.023 162.902C203.918 162.508 203.739 162.204 203.492 161.997C203.24 161.786 202.952 161.684 202.619 161.684C202.262 161.684 202.01 161.802 201.86 162.029C201.71 162.261 201.694 162.601 201.811 163.048L202.375 165.174H201.71L200.642 161.165H201.316L201.56 162.078C201.572 161.761 201.681 161.518 201.888 161.351C202.095 161.185 202.359 161.1 202.688 161.1C203.029 161.1 203.35 161.185 203.646 161.36C203.942 161.534 204.19 161.786 204.385 162.123C204.409 161.798 204.531 161.546 204.746 161.368C204.961 161.189 205.237 161.1 205.566 161.1C206.032 161.1 206.45 161.25 206.812 161.55Z" fill="white"/>
<path d="M207.786 159.692C207.847 159.615 207.948 159.578 208.086 159.578C208.224 159.578 208.342 159.615 208.443 159.692C208.545 159.769 208.614 159.866 208.646 159.988C208.679 160.11 208.663 160.207 208.602 160.284C208.541 160.361 208.439 160.398 208.301 160.398C208.163 160.398 208.046 160.361 207.944 160.284C207.843 160.207 207.774 160.11 207.741 159.988C207.709 159.866 207.721 159.769 207.786 159.692ZM208.833 161.165L209.9 165.174H209.235L208.167 161.165H208.833Z" fill="white"/>
<path d="M212.725 164.59L212.88 165.174H212.384C211.974 165.174 211.642 165.077 211.39 164.882C211.134 164.687 210.948 164.363 210.826 163.904L210.249 161.741H209.649L209.495 161.165H210.095L209.827 160.162H210.501L210.769 161.165H211.808L211.962 161.741H210.923L211.504 163.916C211.573 164.176 211.666 164.351 211.788 164.444C211.91 164.537 212.084 164.586 212.319 164.586H212.725V164.59Z" fill="white"/>
<path d="M147.174 126.681C147.665 126.121 147.47 125.149 146.74 124.509C146.01 123.87 145.02 123.805 144.53 124.365C144.04 124.925 144.234 125.897 144.964 126.537C145.694 127.176 146.684 127.241 147.174 126.681Z" fill="black"/>
<path d="M163.734 126.679C164.224 126.119 164.03 125.147 163.3 124.507C162.569 123.868 161.58 123.803 161.09 124.363C160.599 124.923 160.794 125.895 161.524 126.534C162.254 127.174 163.243 127.238 163.734 126.679Z" fill="black"/>
<path d="M180.181 126.679C180.671 126.119 180.477 125.147 179.747 124.508C179.017 123.868 178.027 123.803 177.537 124.363C177.046 124.923 177.241 125.895 177.971 126.535C178.701 127.174 179.691 127.239 180.181 126.679Z" fill="black"/>
<path d="M196.628 126.679C197.119 126.119 196.924 125.147 196.194 124.508C195.464 123.868 194.474 123.804 193.984 124.364C193.494 124.923 193.688 125.896 194.418 126.535C195.148 127.174 196.138 127.239 196.628 126.679Z" fill="black"/>
<path d="M213.078 126.676C213.568 126.117 213.374 125.144 212.644 124.505C211.914 123.866 210.924 123.801 210.434 124.361C209.943 124.921 210.138 125.893 210.868 126.532C211.598 127.172 212.588 127.236 213.078 126.676Z" fill="black"/>
<path d="M229.525 126.677C230.016 126.117 229.821 125.145 229.091 124.505C228.361 123.866 227.371 123.801 226.881 124.361C226.391 124.921 226.585 125.893 227.315 126.533C228.045 127.172 229.035 127.237 229.525 126.677Z" fill="black"/>
<path d="M201.393 79.022H79.4671C71.4997 79.022 66.7549 85.4827 68.8736 93.449C69.1862 94.6218 69.6286 95.7581 70.1846 96.8457L70.1806 96.8417C70.1927 96.862 70.2049 96.8823 70.213 96.9026C70.4769 97.418 70.765 97.9252 71.0776 98.4203C74.7386 104.658 80.2383 111.545 86.9718 118.87L85.5269 107.876L85.3767 107.771C85.9652 107.84 86.5537 107.876 87.1382 107.876H209.064C217.032 107.876 221.776 101.415 219.658 93.449C217.543 85.4786 209.365 79.022 201.393 79.022Z" fill="#39B048"/>
<path d="M79.1262 83.064H205.334C208.951 83.064 212.664 85.9981 213.626 89.614L215.664 97.28C216.626 100.896 214.471 103.83 210.854 103.83H84.6502C81.0338 103.83 77.32 100.896 76.3581 97.28L74.3205 89.614C73.3546 85.9981 75.5098 83.064 79.1262 83.064Z" fill="white"/>
<path d="M105.078 90.0441L105.821 92.8362H108.926L109.141 93.6478H106.036L106.795 96.4967H110.245L110.472 97.353H105.967L103.795 89.1919H108.301L108.528 90.0482H105.078V90.0441Z" fill="#39B048"/>
<path d="M115.44 91.5984C116.021 92.0733 116.431 92.7591 116.67 93.6519L117.652 97.3449H116.597L115.639 93.7452C115.473 93.1122 115.18 92.6252 114.766 92.2843C114.352 91.9434 113.865 91.7729 113.309 91.7729C112.729 91.7729 112.315 91.9596 112.067 92.333C111.82 92.7063 111.791 93.2542 111.982 93.9725L112.879 97.3408H111.824L110.135 90.9856H111.191L111.592 92.4912C111.617 91.9759 111.799 91.5781 112.136 91.2981C112.477 91.0222 112.916 90.8801 113.455 90.8801C114.198 90.8882 114.86 91.1236 115.44 91.5984Z" fill="#39B048"/>
<path d="M122.06 96.4237L122.308 97.349H121.52C120.871 97.349 120.347 97.1947 119.945 96.8863C119.544 96.5779 119.243 96.0584 119.052 95.3361L118.139 91.9069H117.19L116.946 90.9938H117.896L117.474 89.407H118.541L118.963 90.9938H120.607L120.851 91.9069H119.207L120.124 95.3564C120.234 95.7662 120.384 96.0463 120.575 96.1964C120.765 96.3466 121.045 96.4237 121.415 96.4237H122.06Z" fill="#39B048"/>
<path d="M128.611 94.3946H123.525C123.74 95.121 124.094 95.6648 124.581 96.026C125.068 96.3872 125.591 96.5698 126.155 96.5698C126.667 96.5698 127.056 96.4399 127.332 96.1802C127.608 95.9205 127.726 95.5755 127.69 95.1453H128.814C128.854 95.5836 128.785 95.9773 128.611 96.3263C128.436 96.6753 128.164 96.9431 127.791 97.1379C127.418 97.3327 126.963 97.4261 126.431 97.4261C125.823 97.4261 125.246 97.2962 124.706 97.0324C124.167 96.7686 123.696 96.3953 123.302 95.9042C122.904 95.4132 122.62 94.8369 122.442 94.1714C122.263 93.5058 122.243 92.9295 122.381 92.4344C122.519 91.9393 122.783 91.5619 123.184 91.2981C123.586 91.0343 124.089 90.9045 124.702 90.9045C125.319 90.9045 125.892 91.0343 126.423 91.2981C126.951 91.5619 127.397 91.9109 127.759 92.3533C128.12 92.7916 128.371 93.2786 128.509 93.8102C128.562 94.0415 128.599 94.2322 128.611 94.3946ZM126.91 92.7063C126.651 92.3898 126.342 92.1544 125.993 92.0002C125.644 91.846 125.287 91.7689 124.926 91.7689C124.345 91.7689 123.907 91.9474 123.611 92.3086C123.31 92.6658 123.241 93.1933 123.395 93.8873H127.458C127.353 93.4165 127.17 93.0229 126.91 92.7063Z" fill="#39B048"/>
<path d="M131.168 91.2535C131.505 91.01 131.951 90.8882 132.507 90.8882L132.812 92.0327H132.487C131.89 92.0327 131.448 92.1869 131.148 92.4912C130.851 92.7956 130.795 93.2988 130.981 94.0009L131.87 97.349H130.815L129.126 90.9938H130.182L130.523 92.2802C130.616 91.8379 130.831 91.497 131.168 91.2535Z" fill="#39B048"/>
<path d="M136.875 90.9938L140.268 95.9976L140.848 90.9938H142.017L140.735 100.36H139.541L140.032 97.2475L135.694 90.9938H136.875Z" fill="#39B048"/>
<path d="M147.582 91.3062C148.134 91.57 148.613 91.9474 149.019 92.4425C149.424 92.9377 149.713 93.5139 149.891 94.1795C150.07 94.845 150.086 95.4213 149.94 95.9123C149.798 96.4034 149.518 96.7808 149.104 97.0405C148.69 97.3043 148.178 97.4342 147.57 97.4342C146.961 97.4342 146.38 97.3043 145.824 97.0405C145.272 96.7767 144.793 96.4034 144.383 95.9123C143.973 95.4213 143.681 94.845 143.507 94.1795C143.332 93.5139 143.316 92.9377 143.462 92.4425C143.608 91.9474 143.888 91.57 144.302 91.3062C144.716 91.0425 145.228 90.9126 145.836 90.9126C146.449 90.9126 147.03 91.0425 147.582 91.3062ZM145.106 92.0935C144.83 92.264 144.643 92.5237 144.538 92.8768C144.436 93.2298 144.452 93.6641 144.59 94.1795C144.724 94.6908 144.939 95.121 145.228 95.47C145.52 95.8231 145.845 96.0828 146.21 96.2532C146.575 96.4237 146.949 96.5089 147.326 96.5089C147.704 96.5089 148.032 96.4237 148.308 96.2532C148.584 96.0828 148.771 95.8231 148.876 95.47C148.978 95.1169 148.966 94.6868 148.828 94.1795C148.69 93.6641 148.475 93.2298 148.187 92.8768C147.898 92.5237 147.57 92.264 147.204 92.0935C146.839 91.9231 146.466 91.8379 146.088 91.8379C145.707 91.8379 145.382 91.9231 145.106 92.0935Z" fill="#39B048"/>
<path d="M156.077 90.9937L157.765 97.3489H156.71L156.312 95.8555C156.288 96.3709 156.105 96.7686 155.764 97.0405C155.423 97.3124 154.981 97.4504 154.433 97.4504C153.698 97.4504 153.041 97.215 152.46 96.7402C151.88 96.2654 151.47 95.5836 151.235 94.6949L150.248 90.9897H151.304L152.262 94.5893C152.428 95.2224 152.72 95.7094 153.138 96.0544C153.552 96.3993 154.039 96.5698 154.595 96.5698C155.176 96.5698 155.586 96.3831 155.837 96.0097C156.085 95.6364 156.113 95.0885 155.923 94.3702L155.021 90.9897H156.077V90.9937Z" fill="#39B048"/>
<path d="M159.803 91.2535C160.14 91.01 160.586 90.8882 161.142 90.8882L161.447 92.0327H161.122C160.529 92.0327 160.083 92.1869 159.782 92.4912C159.486 92.7956 159.429 93.2988 159.616 94.0009L160.505 97.349H159.45L157.761 90.9938H158.816L159.157 92.2802C159.255 91.8379 159.466 91.497 159.803 91.2535Z" fill="#39B048"/>
<path d="M169.678 91.3062C170.23 91.57 170.709 91.9474 171.115 92.4425C171.521 92.9377 171.813 93.5139 171.987 94.1795C172.162 94.845 172.182 95.4213 172.036 95.9123C171.894 96.4034 171.614 96.7808 171.2 97.0405C170.786 97.3043 170.274 97.4342 169.666 97.4342C169.057 97.4342 168.476 97.3043 167.92 97.0405C167.368 96.7767 166.889 96.4034 166.479 95.9123C166.07 95.4213 165.777 94.845 165.603 94.1795C165.428 93.5139 165.412 92.9377 165.558 92.4425C165.704 91.9474 165.984 91.57 166.398 91.3062C166.812 91.0425 167.324 90.9126 167.933 90.9126C168.545 90.9126 169.126 91.0425 169.678 91.3062ZM167.202 92.0935C166.926 92.264 166.739 92.5237 166.634 92.8768C166.528 93.2298 166.548 93.6641 166.686 94.1795C166.82 94.6908 167.036 95.121 167.324 95.47C167.616 95.8231 167.941 96.0828 168.306 96.2532C168.671 96.4237 169.045 96.5089 169.422 96.5089C169.8 96.5089 170.128 96.4237 170.404 96.2532C170.68 96.0828 170.867 95.8231 170.973 95.47C171.078 95.1169 171.062 94.6868 170.924 94.1795C170.786 93.6641 170.571 93.2298 170.283 92.8768C169.99 92.5237 169.666 92.264 169.3 92.0935C168.935 91.9231 168.562 91.8379 168.184 91.8379C167.803 91.8379 167.478 91.9231 167.202 92.0935Z" fill="#39B048"/>
<path d="M176.996 96.4237L177.243 97.349H176.456C175.807 97.349 175.283 97.1947 174.881 96.8863C174.479 96.5779 174.183 96.0584 173.988 95.3361L173.075 91.9069H172.125L171.882 90.9938H172.832L172.409 89.407H173.473L173.895 90.9938H175.539L175.782 91.9069H174.138L175.056 95.3564C175.165 95.7662 175.315 96.0463 175.506 96.1964C175.697 96.3466 175.977 96.4237 176.346 96.4237H176.996Z" fill="#39B048"/>
<path d="M181.935 91.3062C182.447 91.57 182.893 91.9474 183.275 92.4425C183.656 92.9376 183.936 93.5139 184.115 94.1795C184.294 94.845 184.318 95.4213 184.2 95.9123C184.078 96.4034 183.835 96.7808 183.466 97.0405C183.096 97.3043 182.629 97.4342 182.065 97.4342C181.448 97.4342 180.884 97.2759 180.373 96.9634C179.861 96.6509 179.455 96.241 179.159 95.7297L180.389 100.36H179.334L176.842 90.9937H177.897L178.327 92.613C178.356 92.1016 178.538 91.6917 178.883 91.3793C179.228 91.0668 179.711 90.9085 180.328 90.9085C180.888 90.9126 181.424 91.0424 181.935 91.3062ZM179.236 92.1341C178.956 92.3248 178.77 92.5967 178.676 92.9498C178.587 93.3069 178.603 93.7128 178.725 94.1754C178.847 94.638 179.05 95.0439 179.326 95.3969C179.606 95.75 179.934 96.0219 180.32 96.2126C180.701 96.4074 181.099 96.5008 181.509 96.5008C182.167 96.5008 182.633 96.2938 182.914 95.8798C183.194 95.4659 183.238 94.8978 183.043 94.1713C182.849 93.4449 182.504 92.8768 182.004 92.4628C181.505 92.0489 180.929 91.8419 180.271 91.8419C179.865 91.85 179.52 91.9434 179.236 92.1341Z" fill="#39B048"/>
<path d="M67.0715 273.797L15.6994 265.579C15.6588 265.571 15.6223 265.571 15.5817 265.575L0.474873 266.646C-0.101475 266.687 -0.178592 267.507 0.381521 267.653L24.0524 273.801H67.0715V273.797Z" fill="#E0E0E0"/>
<path d="M70.0385 270.551H32.5069V273.797H70.0385V270.551Z" fill="black"/>
<path d="M71.5606 236.871H30.9808L35.0396 270.551H67.5018L71.5606 236.871Z" fill="#232323"/>
<path d="M73.8619 236.871H28.6794V240.605H73.8619V236.871Z" fill="black"/>
<path d="M52.9064 237.127C52.3381 229.189 55.784 221.064 61.8885 215.955" stroke="black" stroke-miterlimit="10"/>
<path d="M78.7649 218.715C84.431 218.455 90.2148 216.669 94.302 212.741C97.3704 209.791 99.2862 205.862 101.904 202.506C104.526 199.15 108.382 196.2 112.619 196.601C105.602 195.461 98.5799 194.321 91.5623 193.18C86.5619 192.369 81.5249 191.553 76.4595 191.683C71.1182 191.821 65.8011 193.022 60.9225 195.201C58.678 196.204 56.4781 197.445 54.887 199.316C53.296 201.187 52.4031 203.788 53.0647 206.154C53.6491 208.232 55.297 209.815 56.8799 211.284C58.4263 212.721 59.993 214.141 61.4948 215.626C62.8058 216.925 63.8732 217.091 65.7403 217.457C69.9411 218.272 74.4667 219.108 78.7649 218.715Z" fill="#39B048"/>
<path d="M52.9997 236.871C47.4757 230.792 44.2205 222.067 43.4981 213.885C42.5402 203.021 46.2662 192.352 49.9394 182.081" stroke="black" stroke-miterlimit="10"/>
<path d="M52.8901 236.871C50.2884 235.443 48.2347 232.594 45.6371 231.165C41.7447 229.027 37.8198 226.868 34.5078 223.913C30.1406 220.021 26.9747 214.798 25.542 209.125" stroke="black" stroke-miterlimit="10"/>
<path d="M69.5961 176.83C74.5275 171.887 76.5772 164.866 79.1992 158.393C81.8212 151.92 85.7542 145.228 92.3456 142.919C84.5568 142.976 76.9628 145.622 70.144 149.384C63.3253 153.146 57.1803 158.003 51.0758 162.837C48.7217 164.699 46.3352 166.599 44.6427 169.078C42.9501 171.554 42.0328 174.744 42.938 177.601C44.4641 182.418 50.9297 182.872 55.2077 182.815C60.5206 182.742 65.8295 180.608 69.5961 176.83Z" fill="#39B048"/>
<path d="M29.9823 191.914C28.7322 189.455 26.7799 187.43 25.2579 185.129C21.9905 180.194 20.8135 173.92 22.0636 168.137C23.3137 162.354 26.9788 157.127 31.9914 153.978C25.822 153.491 19.6243 155.909 14.8674 159.866C10.1104 163.827 6.70512 169.228 4.39567 174.971C2.24451 180.32 0.986283 186.188 1.97663 191.861C2.91421 197.226 5.9096 202.206 10.2119 205.55C14.3884 208.796 22.7982 212.704 27.0884 208.208C31.1715 203.926 32.7504 197.36 29.9823 191.914Z" fill="#39B048"/>
<path d="M61.4055 215.468C64.413 213.285 67.4977 211.268 70.6554 209.348C73.8132 207.433 77.0521 205.647 80.3763 204.04C83.7045 202.437 87.126 201.021 90.6734 199.978C92.4471 199.47 94.2533 199.061 96.0838 198.821C97.9102 198.586 99.7732 198.517 101.6 198.781C99.7692 198.57 97.9184 198.687 96.1081 198.971C94.2938 199.259 92.512 199.718 90.7627 200.27C87.2721 201.406 83.9115 202.904 80.6482 204.588C77.389 206.276 74.2231 208.139 71.1384 210.127C68.0578 212.116 65.03 214.214 62.1442 216.438L61.4055 215.468Z" fill="white"/>
<path d="M66.5561 212.246C66.3328 209.689 66.9701 207.145 68.1958 204.994C69.4216 202.839 71.2562 201.045 73.4438 199.99C71.3495 201.224 69.726 203.127 68.7356 205.274C67.7412 207.421 67.3719 209.835 67.7656 212.096L66.5561 212.246Z" fill="white"/>
<path d="M74.9253 206.921C76.1186 207.607 77.3809 208.188 78.7 208.626C80.015 209.068 81.3828 209.377 82.7709 209.547C84.1591 209.709 85.5715 209.77 86.9637 209.588C88.3437 209.409 89.7318 208.946 90.8074 208.009C89.8008 209.024 88.4167 209.604 87.0124 209.888C85.5999 210.176 84.155 210.217 82.7182 210.152C81.2814 210.079 79.8446 209.864 78.4402 209.502C77.0359 209.145 75.664 208.634 74.349 207.997L74.9253 206.921Z" fill="white"/>
<path d="M82.913 202.871C82.8968 201.857 83.396 200.988 84.0251 200.388C84.6664 199.767 85.4701 199.414 86.2493 199.195C87.8242 198.752 89.403 198.797 90.8845 198.225C89.4923 198.983 87.8444 199.166 86.4523 199.767C85.7582 200.063 85.1251 200.465 84.6948 201.004C84.2605 201.54 84.0292 202.21 84.1266 202.782L82.913 202.871Z" fill="white"/>
<path d="M49.2494 182.219C50.1991 180.145 51.2828 178.201 52.4274 176.274C53.572 174.35 54.8018 172.479 56.0966 170.657C58.678 167.005 61.5557 163.571 64.6566 160.365C66.2192 158.77 67.8427 157.24 69.5231 155.771C71.2196 154.323 72.9527 152.918 74.763 151.62C78.3712 149.002 82.2311 146.746 86.2575 144.855C82.2758 146.839 78.4768 149.177 74.9456 151.863C73.1719 153.198 71.4794 154.635 69.8275 156.112C68.1958 157.614 66.617 159.172 65.099 160.787C62.0914 164.042 59.3193 167.512 56.8474 171.181C55.6095 173.015 54.4365 174.89 53.3488 176.813C52.2651 178.729 51.2301 180.705 50.3696 182.698L49.2494 182.219Z" fill="white"/>
<path d="M53.2716 176.428C54.8708 177.089 56.539 177.576 58.1787 177.248C59.8266 176.935 61.3568 176.01 62.7286 174.926C64.1127 173.839 65.4074 172.585 66.893 171.566C68.3663 170.56 70.0832 169.768 71.8853 169.78C70.0872 169.874 68.4596 170.746 67.0715 171.814C65.6753 172.897 64.4699 174.204 63.1183 175.397C61.7748 176.582 60.2284 177.674 58.3736 178.14C57.4522 178.376 56.4659 178.396 55.5324 178.258C54.5948 178.124 53.7019 177.86 52.8414 177.564L53.2716 176.428Z" fill="white"/>
<path d="M55.3092 172.037L54.3229 170.722C54.0022 170.284 53.641 169.849 53.3447 169.306C53.2026 169.034 53.0809 168.733 53.02 168.413C52.9591 168.092 52.9591 167.759 53.02 167.447C53.1377 166.822 53.4462 166.286 53.8155 165.832C54.5745 164.919 55.5608 164.391 56.3726 163.689C56.7825 163.344 57.1478 162.942 57.4116 162.476C57.6754 162.013 57.8297 161.469 57.7607 160.921C57.8824 161.461 57.7769 162.037 57.5455 162.545C57.3142 163.056 56.9692 163.514 56.5796 163.912C55.8043 164.712 54.8708 165.345 54.2985 166.197C54.0144 166.619 53.8115 167.09 53.7709 167.552C53.7303 168.019 53.8642 168.437 54.1321 168.839C54.3959 169.241 54.7734 169.626 55.1427 170.036L56.2467 171.254L55.3092 172.037Z" fill="white"/>
<path d="M64.965 159.903C64.9366 158.904 65.0543 157.91 65.3344 156.956C65.6144 156.007 66.069 155.098 66.7265 154.355C68.0253 152.89 69.864 151.993 71.7351 151.843C69.8924 152.196 68.2405 153.276 67.2055 154.737C66.6941 155.459 66.3815 156.307 66.2232 157.171C66.065 158.04 66.0568 158.937 66.1786 159.801L64.965 159.903Z" fill="white"/>
<path d="M70.278 155.256C73.2855 156.275 76.8857 155.836 79.6863 153.953C77.1292 156.157 73.4601 157.151 69.9614 156.429L70.278 155.256Z" fill="white"/>
<path d="M60.8494 164.549C63.0817 164.89 65.2938 165.231 67.5099 165.065C68.6139 164.98 69.7098 164.76 70.7529 164.371C71.796 163.977 72.7823 163.405 73.5981 162.618C72.8553 163.474 71.9056 164.152 70.8706 164.647C69.8356 165.146 68.7194 165.479 67.5789 165.665C65.2938 166.047 62.9681 165.897 60.7155 165.759L60.8494 164.549Z" fill="white"/>
<path d="M25.0549 209.847C23.4233 207.632 21.9418 205.355 20.5456 203.009C19.1534 200.664 17.879 198.249 16.7669 195.753C15.6629 193.257 14.7294 190.672 14.1449 187.99C13.8689 186.646 13.6862 185.279 13.6619 183.899C13.6375 182.523 13.7755 181.127 14.1774 179.796L14.1692 179.829C14.5142 177.856 14.8592 175.876 15.3625 173.928C15.8618 171.98 16.5193 170.064 17.4203 168.263C18.3173 166.461 19.466 164.781 20.846 163.32C22.2219 161.855 23.817 160.617 25.5298 159.578C23.8413 160.653 22.2747 161.924 20.9393 163.409C19.5999 164.89 18.5 166.574 17.6517 168.376C16.7993 170.178 16.1905 172.085 15.7359 174.021C15.2773 175.961 14.9769 177.933 14.6766 179.914V179.926L14.6725 179.946C13.9704 182.515 14.2342 185.25 14.8186 187.844C15.4437 190.449 16.4138 192.965 17.5543 195.4C18.6989 197.831 20.0098 200.189 21.4345 202.478C22.8591 204.758 24.3852 206.999 26.0128 209.113L25.0549 209.847Z" fill="white"/>
<path d="M22.3315 204.466C23.5329 204.081 24.4299 202.989 24.8844 201.792C25.3512 200.574 25.477 199.239 25.5744 197.924C25.7409 195.286 25.4811 192.612 24.8073 190.043C25.546 192.592 25.8789 195.266 25.7774 197.932C25.7124 199.259 25.6231 200.607 25.1686 201.893C24.9413 202.53 24.6084 203.147 24.1539 203.663C23.7033 204.182 23.127 204.612 22.4573 204.848L22.3315 204.466Z" fill="white"/>
<path d="M19.1372 199.982C15.0662 197.725 11.7908 194.122 9.94403 189.901C11.9166 194.065 15.2732 197.531 19.328 199.625L19.1372 199.982Z" fill="white"/>
<path d="M14.9404 189.848C16.0931 189.731 17.1768 189.171 18.0454 188.379C18.914 187.588 19.5918 186.577 20.0423 185.478C20.4888 184.374 20.7323 183.193 20.8663 182C21.0002 180.807 21.0286 179.605 21.053 178.404C21.0651 179.605 21.0692 180.811 20.9677 182.012C20.8663 183.213 20.6552 184.414 20.229 185.551C19.8028 186.691 19.1372 187.746 18.2524 188.598C17.3716 189.447 16.2392 190.088 14.9891 190.25L14.9404 189.848Z" fill="white"/>
<path d="M13.9135 184.759C12.9313 184.212 11.9937 183.562 11.2063 182.746C10.4189 181.939 9.78575 180.961 9.46105 179.873C9.12417 178.79 9.1607 177.609 9.51381 176.55C9.87099 175.486 10.5366 174.533 11.4296 173.867C10.561 174.561 9.92781 175.527 9.61122 176.582C9.29464 177.637 9.2987 178.782 9.65587 179.816C10.0049 180.855 10.6422 181.777 11.4255 182.535C12.2088 183.298 13.1343 183.899 14.1084 184.406L13.9135 184.759Z" fill="white"/>
<path d="M16.0485 172.021C17.6517 172.394 19.5147 171.688 20.4847 170.247C19.6283 171.757 17.7775 172.686 15.9713 172.418L16.0485 172.021Z" fill="white"/>
<path d="M17.2214 168.644C16.9739 167.946 16.7263 167.244 16.5477 166.514C16.3691 165.787 16.2595 165.032 16.3042 164.282C16.3488 163.527 16.572 162.788 16.9617 162.147C17.3513 161.51 17.9358 160.978 18.6461 160.751C17.948 161.011 17.4 161.563 17.051 162.2C16.6979 162.841 16.5193 163.567 16.5071 164.29C16.499 165.016 16.637 165.738 16.844 166.436C17.051 167.134 17.327 167.816 17.603 168.502L17.2214 168.644Z" fill="white"/>
<path d="M6.34389 273.797H338" stroke="black" stroke-miterlimit="10"/>
</g>
<defs>
<clipPath id="clip0_318_1748">
<rect width="338" height="274" fill="white"/>
</clipPath>
</defs>
</svg>
