<svg width="16" height="17" viewBox="0 0 16 17" fill="none" xmlns="http://www.w3.org/2000/svg">
<path fill-rule="evenodd" clip-rule="evenodd" d="M12.6023 4.6633V5.94108C14.0376 6.38909 15.0833 7.68841 15.0833 9.2403V13.3544C15.0833 15.2756 13.4905 16.8333 11.5269 16.8333H4.474C2.50947 16.8333 0.916672 15.2756 0.916672 13.3544V9.2403C0.916672 7.68841 1.96329 6.38909 3.39774 5.94108V4.6633C3.40621 2.17895 5.46389 0.166626 7.9873 0.166626C10.5446 0.166626 12.6023 2.17895 12.6023 4.6633ZM8.00424 1.61583C9.72321 1.61583 11.1204 2.98222 11.1204 4.6633V5.76138H4.87961V4.64673C4.88808 2.97394 6.28527 1.61583 8.00424 1.61583ZM8.74094 12.2124C8.74094 12.6182 8.41069 12.9411 7.99577 12.9411C7.58932 12.9411 7.25907 12.6182 7.25907 12.2124V10.374C7.25907 9.97649 7.58932 9.65353 7.99577 9.65353C8.41069 9.65353 8.74094 9.97649 8.74094 10.374V12.2124Z" fill="#1D7151"/>
</svg>
