<svg width="52" height="52" viewBox="0 0 52 52" fill="none" xmlns="http://www.w3.org/2000/svg">
<g filter="url(#filter0_d_1543_1607)">
<circle cx="26" cy="26" r="20" fill="white"/>
<circle cx="26" cy="26" r="19.75" stroke="#39B048" stroke-width="0.5"/>
</g>
<path d="M21.7 29.2458H17.3C17.1541 29.2459 17.0143 29.3038 16.9111 29.407C16.808 29.5101 16.75 29.65 16.75 29.7958C16.75 30.5252 17.0397 31.2247 17.5555 31.7404C18.0712 32.2561 18.7707 32.5458 19.5 32.5458C20.2293 32.5458 20.9288 32.2561 21.4445 31.7404C21.9603 31.2247 22.25 30.5252 22.25 29.7958C22.25 29.65 22.192 29.5101 22.0889 29.407C21.9857 29.3038 21.8459 29.2459 21.7 29.2458ZM32.7 29.2458H28.3C28.1541 29.2459 28.0143 29.3038 27.9111 29.407C27.808 29.5101 27.75 29.65 27.75 29.7958C27.75 30.5252 28.0397 31.2247 28.5555 31.7404C29.0712 32.2561 29.7707 32.5458 30.5 32.5458C31.2293 32.5458 31.9288 32.2561 32.4445 31.7404C32.9603 31.2247 33.25 30.5252 33.25 29.7958C33.25 29.65 33.192 29.5101 33.0889 29.407C32.9857 29.3038 32.8459 29.2459 32.7 29.2458Z" fill="#21DE32"/>
<path d="M22.25 30.4375C22.1154 30.4376 21.9838 30.3982 21.8714 30.3241C21.7591 30.25 21.671 30.1445 21.618 30.0208L19.5 25.0785L17.382 30.0208C17.3102 30.1884 17.1747 30.3207 17.0054 30.3884C16.8361 30.4561 16.6468 30.4538 16.4792 30.382C16.3116 30.3102 16.1794 30.1747 16.1116 30.0054C16.0439 29.8361 16.0462 29.6468 16.118 29.4792L18.868 23.0626C18.9291 22.948 19.0201 22.8522 19.1315 22.7853C19.2428 22.7185 19.3702 22.6832 19.5 22.6832C19.6298 22.6832 19.7572 22.7185 19.8686 22.7853C19.9799 22.8522 20.0709 22.948 20.132 23.0626L22.882 29.4792C22.9269 29.5838 22.9452 29.6979 22.9351 29.8113C22.925 29.9246 22.8869 30.0337 22.8243 30.1287C22.7616 30.2237 22.6763 30.3017 22.5761 30.3556C22.4759 30.4095 22.3638 30.4376 22.25 30.4375Z" fill="#077747"/>
<path d="M19.5 33.1875C18.5886 33.1865 17.7149 32.8239 17.0705 32.1795C16.4261 31.5351 16.0636 30.6614 16.0625 29.75C16.0625 29.5677 16.1349 29.3928 16.2639 29.2639C16.3928 29.135 16.5677 29.0625 16.75 29.0625C16.9323 29.0625 17.1072 29.135 17.2361 29.2639C17.3651 29.3928 17.4375 29.5677 17.4375 29.75C17.4375 30.297 17.6548 30.8216 18.0416 31.2084C18.4284 31.5952 18.953 31.8125 19.5 31.8125C20.047 31.8125 20.5716 31.5952 20.9584 31.2084C21.3452 30.8216 21.5625 30.297 21.5625 29.75C21.5625 29.5677 21.6349 29.3928 21.7639 29.2639C21.8928 29.135 22.0677 29.0625 22.25 29.0625C22.4323 29.0625 22.6072 29.135 22.7361 29.2639C22.8651 29.3928 22.9375 29.5677 22.9375 29.75C22.9364 30.6614 22.5739 31.5351 21.9295 32.1795C21.2851 32.8239 20.4114 33.1865 19.5 33.1875ZM33.25 30.4375C33.1154 30.4376 32.9838 30.3982 32.8714 30.3241C32.7591 30.25 32.6709 30.1445 32.618 30.0208L30.5 25.0785L28.382 30.0208C28.3102 30.1884 28.1747 30.3207 28.0054 30.3884C27.8361 30.4561 27.6468 30.4538 27.4792 30.382C27.3116 30.3102 27.1794 30.1747 27.1116 30.0054C27.0439 29.8361 27.0462 29.6468 27.118 29.4792L29.868 23.0626C29.9291 22.948 30.0201 22.8522 30.1315 22.7853C30.2428 22.7185 30.3702 22.6832 30.5 22.6832C30.6298 22.6832 30.7572 22.7185 30.8686 22.7853C30.9799 22.8522 31.0709 22.948 31.132 23.0626L33.882 29.4792C33.9269 29.5838 33.9452 29.6979 33.9351 29.8113C33.925 29.9246 33.8869 30.0337 33.8243 30.1287C33.7616 30.2237 33.6763 30.3017 33.5761 30.3556C33.4759 30.4095 33.3638 30.4376 33.25 30.4375Z" fill="#077747"/>
<path d="M30.5 33.1875C29.5886 33.1864 28.7149 32.8239 28.0705 32.1795C27.4261 31.5351 27.0636 30.6614 27.0625 29.75C27.0625 29.5677 27.1349 29.3928 27.2639 29.2639C27.3928 29.1349 27.5677 29.0625 27.75 29.0625C27.9323 29.0625 28.1072 29.1349 28.2361 29.2639C28.3651 29.3928 28.4375 29.5677 28.4375 29.75C28.4375 30.297 28.6548 30.8216 29.0416 31.2084C29.4284 31.5952 29.953 31.8125 30.5 31.8125C31.047 31.8125 31.5716 31.5952 31.9584 31.2084C32.3452 30.8216 32.5625 30.297 32.5625 29.75C32.5625 29.5677 32.6349 29.3928 32.7639 29.2639C32.8928 29.1349 33.0677 29.0625 33.25 29.0625C33.4323 29.0625 33.6072 29.1349 33.7361 29.2639C33.8651 29.3928 33.9375 29.5677 33.9375 29.75C33.9364 30.6614 33.5739 31.5351 32.9295 32.1795C32.2851 32.8239 31.4114 33.1864 30.5 33.1875ZM22.25 30.4375H16.75C16.5677 30.4375 16.3928 30.3651 16.2639 30.2361C16.1349 30.1072 16.0625 29.9323 16.0625 29.75C16.0625 29.5677 16.1349 29.3928 16.2639 29.2639C16.3928 29.1349 16.5677 29.0625 16.75 29.0625H22.25C22.4323 29.0625 22.6072 29.1349 22.7361 29.2639C22.8651 29.3928 22.9375 29.5677 22.9375 29.75C22.9375 29.9323 22.8651 30.1072 22.7361 30.2361C22.6072 30.3651 22.4323 30.4375 22.25 30.4375Z" fill="#077747"/>
<path d="M33.25 30.4376H27.75C27.5677 30.4376 27.3928 30.3652 27.2639 30.2362C27.1349 30.1073 27.0625 29.9324 27.0625 29.7501C27.0625 29.5677 27.1349 29.3929 27.2639 29.2639C27.3928 29.135 27.5677 29.0626 27.75 29.0626H33.25C33.4323 29.0626 33.6072 29.135 33.7361 29.2639C33.8651 29.3929 33.9375 29.5677 33.9375 29.7501C33.9375 29.9324 33.8651 30.1073 33.7361 30.2362C33.6072 30.3652 33.4323 30.4376 33.25 30.4376ZM30.7569 22.193C30.662 22.193 30.5672 22.1912 30.4713 22.1871C29.3181 22.1305 28.2022 21.7598 27.2442 21.1152C26.5895 20.642 25.8075 20.3769 25 20.3542C24.1925 20.3769 23.4105 20.642 22.7558 21.1152C21.7978 21.7598 20.6819 22.1305 19.5286 22.1871C18.1219 22.2277 16.7309 21.8822 15.5066 21.1881C15.4272 21.1452 15.357 21.0871 15.3 21.017C15.2431 20.947 15.2005 20.8664 15.1747 20.78C15.1489 20.6935 15.1404 20.6027 15.1496 20.5129C15.1589 20.4232 15.1857 20.3361 15.2286 20.2567C15.2715 20.1773 15.3297 20.1071 15.3997 20.0501C15.4697 19.9932 15.5503 19.9506 15.6368 19.9248C15.7233 19.899 15.814 19.8905 15.9038 19.8997C15.9936 19.909 16.0807 19.9358 16.1601 19.9787C17.1682 20.5509 18.3125 20.8393 19.4713 20.813C20.3991 20.7632 21.2948 20.4574 22.0593 19.9295C22.9239 19.3286 23.9473 18.9979 25 18.9792C26.0527 18.9979 27.0761 19.3286 27.9407 19.9295C28.7051 20.4574 29.6009 20.7632 30.5286 20.813C31.6875 20.8394 32.8319 20.551 33.8399 19.9787C34.0003 19.8921 34.1885 19.8727 34.3632 19.9248C34.4497 19.9506 34.5302 19.9932 34.6003 20.0501C34.6703 20.1071 34.7284 20.1773 34.7714 20.2567C34.8143 20.3361 34.8411 20.4232 34.8504 20.5129C34.8596 20.6027 34.8511 20.6935 34.8253 20.78C34.7995 20.8664 34.7569 20.947 34.6999 21.017C34.643 21.0871 34.5728 21.1452 34.4934 21.1881C33.3516 21.8305 32.0669 22.176 30.7569 22.193Z" fill="#077747"/>
<path d="M25 36.8542C24.8177 36.8542 24.6428 36.7817 24.5139 36.6528C24.385 36.5239 24.3125 36.349 24.3125 36.1667V17.8334C24.3125 17.651 24.3849 17.4762 24.5139 17.3472C24.6428 17.2183 24.8177 17.1459 25 17.1459C25.1823 17.1459 25.3572 17.2183 25.4861 17.3472C25.6151 17.4762 25.6875 17.651 25.6875 17.8334V36.1667C25.6875 36.349 25.615 36.5239 25.4861 36.6528C25.3572 36.7817 25.1823 36.8542 25 36.8542Z" fill="#077747"/>
<path d="M27.75 36.8542H22.25C22.0677 36.8542 21.8928 36.7818 21.7639 36.6529C21.6349 36.524 21.5625 36.3491 21.5625 36.1667C21.5625 35.9844 21.6349 35.8095 21.7639 35.6806C21.8928 35.5517 22.0677 35.4792 22.25 35.4792H27.75C27.9323 35.4792 28.1072 35.5517 28.2361 35.6806C28.3651 35.8095 28.4375 35.9844 28.4375 36.1667C28.4375 36.3491 28.3651 36.524 28.2361 36.6529C28.1072 36.7818 27.9323 36.8542 27.75 36.8542Z" fill="#077747"/>
<defs>
<filter id="filter0_d_1543_1607" x="0.2" y="0.2" width="51.6" height="51.6" filterUnits="userSpaceOnUse" color-interpolation-filters="sRGB">
<feFlood flood-opacity="0" result="BackgroundImageFix"/>
<feColorMatrix in="SourceAlpha" type="matrix" values="0 0 0 0 0 0 0 0 0 0 0 0 0 0 0 0 0 0 127 0" result="hardAlpha"/>
<feOffset/>
<feGaussianBlur stdDeviation="2.9"/>
<feComposite in2="hardAlpha" operator="out"/>
<feColorMatrix type="matrix" values="0 0 0 0 0 0 0 0 0 0 0 0 0 0 0 0 0 0 0.25 0"/>
<feBlend mode="normal" in2="BackgroundImageFix" result="effect1_dropShadow_1543_1607"/>
<feBlend mode="normal" in="SourceGraphic" in2="effect1_dropShadow_1543_1607" result="shape"/>
</filter>
</defs>
</svg>
