<svg width="35" height="36" viewBox="0 0 35 36" fill="none" xmlns="http://www.w3.org/2000/svg">
<circle cx="17.5" cy="18" r="17.5" fill="#39B048"/>
<path fill-rule="evenodd" clip-rule="evenodd" d="M19.0117 25.85C19.0567 25.85 19.0966 25.8789 19.1107 25.9216L19.3807 26.7424C19.3976 26.7938 19.4512 26.8238 19.5037 26.8106C21.6283 26.2792 23.4319 24.9218 24.5637 23.0939C24.5919 23.0484 24.5803 22.9889 24.5374 22.9569L23.858 22.4486C23.8224 22.422 23.8077 22.3757 23.8212 22.3334L24.7565 19.4163C24.7703 19.3734 24.81 19.3443 24.8549 19.3439L25.7058 19.3374C25.7605 19.337 25.8055 19.2944 25.8086 19.2398C25.8174 19.0866 25.8332 18.7876 25.8332 18.6115C25.8332 16.5551 25.1078 14.6703 23.9022 13.2056C23.8675 13.1635 23.8061 13.156 23.7619 13.188L23.0632 13.6943C23.0265 13.7209 22.9768 13.7207 22.9403 13.6938L20.4931 11.892C20.4573 11.8656 20.4422 11.8195 20.4554 11.7771L20.7222 10.9229C20.7382 10.8719 20.713 10.8171 20.6637 10.7966C19.6882 10.3906 18.6198 10.1667 17.4998 10.1667C16.4013 10.1667 15.3523 10.3821 14.392 10.7735C14.3423 10.7938 14.3167 10.8489 14.3327 10.9001L14.6009 11.7585C14.6141 11.8009 14.599 11.8471 14.5632 11.8734L12.116 13.6752C12.0795 13.7021 12.0298 13.7023 11.9931 13.6757L11.2686 13.1508C11.2246 13.1189 11.1634 13.1261 11.1287 13.1679C9.90439 14.6379 9.1665 16.5374 9.1665 18.6115C9.1665 18.7786 9.18067 19.0612 9.18878 19.2093C9.19178 19.264 9.23684 19.3067 9.29162 19.3071L10.1664 19.3138C10.2114 19.3142 10.251 19.3434 10.2648 19.3862L11.2001 22.3033C11.2137 22.3456 11.1989 22.3919 11.1633 22.4185L10.4564 22.9474C10.4135 22.9794 10.4019 23.0388 10.43 23.0843C11.5615 24.917 13.3676 26.2782 15.496 26.8106C15.5485 26.8238 15.6021 26.7938 15.619 26.7424L15.889 25.9216C15.903 25.8789 15.9429 25.85 15.9879 25.85H19.0117ZM17.4998 21.0244C18.8148 21.0243 19.8808 19.9441 19.8808 18.6115C19.8808 17.279 18.8148 16.1987 17.4998 16.1987C16.1849 16.1987 15.1189 17.279 15.1189 18.6115C15.1189 19.9441 16.1849 21.0244 17.4998 21.0244Z" stroke="white" stroke-width="1.5"/>
</svg>
