<svg width="52" height="51" viewBox="0 0 52 51" fill="none" xmlns="http://www.w3.org/2000/svg">
<g clip-path="url(#clip0_1280_17749)">
<path d="M33.5177 38.6242H0.927734V41.8217H33.5177V38.6242Z" stroke="#1E1E1E" stroke-width="1.5" stroke-miterlimit="10"/>
<path d="M2.62793 44.9231V50.3222H31.9173V44.5212" stroke="#1E1E1E" stroke-width="1.5" stroke-miterlimit="10"/>
<path d="M7.8916 38.6242V32.4996C7.8916 31.3792 8.33619 30.3087 9.12577 29.5155L11.7328 26.9085" stroke="#1E1E1E" stroke-width="1.5" stroke-miterlimit="10"/>
<path d="M27.1049 38.233V32.1083C27.1049 30.988 26.6603 29.9174 25.8707 29.1243L23.2637 26.5172" stroke="#1E1E1E" stroke-width="1.5" stroke-miterlimit="10"/>
<path d="M13.0098 20.3997C13.5966 22.6653 14.6316 24.4579 17.2209 24.593C20.5179 23.9706 22.0082 21.954 21.6845 18.5396C22.9187 16.7221 23.719 14.9722 23.6052 13.3574H15.5741C14.0092 14.3604 13.1912 15.6586 13.305 17.316L22.499 17.2378" stroke="#1E1E1E" stroke-width="1.5" stroke-miterlimit="10"/>
<path d="M19.6575 23.6825V26.9085L17.6409 28.9287L15.0801 26.3678V23.9279" stroke="#1E1E1E" stroke-width="1.5" stroke-miterlimit="10"/>
<path d="M12.313 38.6242V34.5447" stroke="#1E1E1E" stroke-width="1.5" stroke-miterlimit="10"/>
<path d="M22.6772 38.6242V34.5447" stroke="#1E1E1E" stroke-width="1.5" stroke-miterlimit="10"/>
<path d="M2.62793 38.6242V29.8285C2.62793 28.9322 2.9836 28.075 3.61669 27.442L6.39447 24.6642" stroke="#1E1E1E" stroke-width="1.5" stroke-miterlimit="10"/>
<path d="M6.69667 25.1194L5.66878 24.0915C5.20285 23.6256 5.20285 22.868 5.66878 22.4021L7.39733 20.6736C7.86326 20.2076 8.62084 20.2076 9.08676 20.6736L10.1146 21.7014C10.5806 22.1674 10.5806 22.925 10.1146 23.3909L8.38609 25.1194C7.91661 25.5854 7.16259 25.5854 6.69667 25.1194Z" stroke="#1E1E1E" stroke-width="1.5" stroke-miterlimit="10"/>
<path d="M30.3558 22.8965L35.7655 17.6966H48.9893C50.163 17.6966 51.1162 16.7434 51.1162 15.5697V2.80474C51.1162 1.63103 50.163 0.677834 48.9893 0.677834H29.2319C28.0582 0.677834 27.105 1.63103 27.105 2.80474V15.7298C27.105 16.9035 28.0582 17.8567 29.2319 17.8567H30.4696L30.3558 22.8965Z" stroke="#21DE32" stroke-width="1.5" stroke-miterlimit="10"/>
<path d="M30.9106 8.9507C36.3061 4.50484 41.9684 4.27721 47.9294 8.9507C42.4023 13.987 36.7436 14.5169 30.9106 8.9507Z" stroke="#077747" stroke-miterlimit="10"/>
<path d="M39.2405 12.9271C41.2833 12.9271 42.9394 11.271 42.9394 9.22813C42.9394 7.18525 41.2833 5.52917 39.2405 5.52917C37.1976 5.52917 35.5415 7.18525 35.5415 9.22813C35.5415 11.271 37.1976 12.9271 39.2405 12.9271Z" stroke="#077747" stroke-miterlimit="10"/>
</g>
<defs>
<clipPath id="clip0_1280_17749">
<rect width="50.5406" height="50" fill="white" transform="translate(0.75 0.5)"/>
</clipPath>
</defs>
</svg>
