<svg width="52" height="52" viewBox="0 0 52 52" fill="none" xmlns="http://www.w3.org/2000/svg">
<g filter="url(#filter0_d_1544_1619)">
<circle cx="26" cy="26" r="20" fill="white"/>
<circle cx="26" cy="26" r="19.75" stroke="#39B048" stroke-width="0.5"/>
</g>
<g clip-path="url(#clip0_1544_1619)">
<path d="M36.2828 17.8043L21.6731 13.8896C20.6106 13.6049 19.4318 14.2855 19.1471 15.3481L14.5207 32.614C14.236 33.6765 14.9166 34.8553 15.9791 35.14L30.5887 39.0547C31.6513 39.3394 32.8301 38.6588 33.1148 37.5962L37.7412 20.3303C38.0259 19.2678 37.3453 18.089 36.2828 17.8043ZM20.1536 32.8422C20.0824 33.1078 19.7456 33.3022 19.48 33.2311L17.8862 32.804C17.6206 32.7328 17.4261 32.396 17.4973 32.1304L17.9243 30.5366C17.9955 30.271 18.3323 30.0765 18.5979 30.1477L20.1917 30.5748C20.4574 30.6459 20.6518 30.9827 20.5806 31.2484L20.1536 32.8422ZM21.5771 27.5296C21.5059 27.7952 21.1691 27.9896 20.9035 27.9185L19.3097 27.4914C19.0441 27.4202 18.8496 27.0834 18.9208 26.8178L19.3478 25.224C19.419 24.9584 19.7558 24.7639 20.0215 24.8351L21.6152 25.2622C21.8809 25.3333 22.0753 25.6702 22.0041 25.9358L21.5771 27.5296ZM25.4662 34.2657C25.395 34.5313 25.0582 34.7257 24.7926 34.6546L23.1988 34.2275C22.9332 34.1563 22.7387 33.8195 22.8099 33.5539L23.2369 31.9601C23.3081 31.6945 23.6449 31.5 23.9105 31.5712L25.5043 31.9983C25.7699 32.0694 25.9644 32.4062 25.8932 32.6719L25.4662 34.2657ZM26.8897 28.9531C26.8185 29.2187 26.4817 29.4131 26.2161 29.342L24.6223 28.9149C24.3567 28.8437 24.1622 28.5069 24.2334 28.2413L24.6604 26.6475C24.7316 26.3819 25.0684 26.1875 25.334 26.2586L26.9278 26.6857C27.1935 26.7569 27.3879 27.0937 27.3167 27.3593L26.8897 28.9531ZM30.7788 35.6892C30.7076 35.9548 30.3708 36.1492 30.1052 36.0781L28.5114 35.651C28.2458 35.5798 28.0513 35.243 28.1225 34.9774L29.973 28.071C30.0442 27.8054 30.381 27.611 30.6466 27.6821L32.2404 28.1092C32.506 28.1804 32.7005 28.5172 32.6293 28.7828L30.7788 35.6892ZM33.6258 25.064C33.5546 25.3296 33.2178 25.5241 32.9522 25.4529L20.7332 22.1788C20.4676 22.1077 20.2731 21.7708 20.3443 21.5052L21.4831 17.2551C21.5543 16.9895 21.8911 16.7951 22.1567 16.8662L34.3757 20.1403C34.6413 20.2115 34.8358 20.5483 34.7646 20.8139L33.6258 25.064Z" fill="#39B048"/>
</g>
<defs>
<filter id="filter0_d_1544_1619" x="0.2" y="0.2" width="51.6" height="51.6" filterUnits="userSpaceOnUse" color-interpolation-filters="sRGB">
<feFlood flood-opacity="0" result="BackgroundImageFix"/>
<feColorMatrix in="SourceAlpha" type="matrix" values="0 0 0 0 0 0 0 0 0 0 0 0 0 0 0 0 0 0 127 0" result="hardAlpha"/>
<feOffset/>
<feGaussianBlur stdDeviation="2.9"/>
<feComposite in2="hardAlpha" operator="out"/>
<feColorMatrix type="matrix" values="0 0 0 0 0 0 0 0 0 0 0 0 0 0 0 0 0 0 0.25 0"/>
<feBlend mode="normal" in2="BackgroundImageFix" result="effect1_dropShadow_1544_1619"/>
<feBlend mode="normal" in="SourceGraphic" in2="effect1_dropShadow_1544_1619" result="shape"/>
</filter>
<clipPath id="clip0_1544_1619">
<rect width="22" height="22" fill="white" transform="translate(18.3528 13) rotate(15)"/>
</clipPath>
</defs>
</svg>
